<?xml version="1.0" encoding="UTF-8"?>
<svg id="Layer_2" data-name="Layer 2" xmlns="http://www.w3.org/2000/svg" viewBox="0 0 613.14 66.19">
  <defs>
    <style>
      .cls-1 {
        fill: #2f3e46;
      }
    </style>
  </defs>
  <path class="cls-1" d="m21.34,25.79v7.18h8.27c.25,0,.45.08.62.24s.24.37.24.62-.08.45-.24.6c-.16.15-.37.23-.62.23h-8.27v7.78h9.55c.25,0,.45.09.62.26.16.17.24.37.24.6,0,.25-.08.45-.24.6s-.37.23-.62.23h-10.5c-.25,0-.45-.08-.62-.24s-.24-.37-.24-.62v-18.31c0-.25.08-.45.24-.61s.37-.24.62-.24h10.5c.25,0,.45.08.62.24s.24.37.24.61-.08.45-.24.6c-.16.15-.37.23-.62.23h-9.55Zm31.02-1.03c0-.21-.08-.39-.24-.53-.16-.14-.36-.21-.59-.21-.25,0-.48.12-.69.37l-6.12,8.35-6.15-8.38c-.19-.23-.43-.34-.71-.34-.23,0-.43.09-.62.26-.18.17-.27.37-.27.6,0,.19.07.36.2.52l6.46,8.75-6.44,8.75c-.13.19-.2.38-.2.57s.07.37.21.53c.14.16.33.24.56.24.29,0,.51-.13.69-.4l6.15-8.35,6.18,8.38c.17.25.4.37.69.37.23,0,.43-.08.62-.24.18-.16.27-.38.27-.64,0-.15-.07-.32-.2-.51l-6.44-8.75,6.44-8.78c.13-.21.2-.39.2-.54Zm18.3,2.1c.47.87.7,1.85.7,2.93s-.23,2.08-.7,2.97c-.47.9-1.12,1.6-1.96,2.12-.84.51-1.78.77-2.83.77h-5.92v7.61c0,.25-.08.45-.24.62s-.37.24-.62.24-.45-.08-.62-.24-.24-.37-.24-.62v-18.31c0-.25.08-.45.24-.61s.37-.24.62-.24h6.78c1.05,0,1.99.24,2.83.73.84.49,1.49,1.16,1.96,2.03Zm-1.07,2.93c0-1.18-.34-2.15-1.03-2.89-.69-.74-1.58-1.12-2.69-1.12h-5.92v8.21h5.92c1.11,0,2-.4,2.69-1.2.69-.8,1.03-1.8,1.03-3Zm19.15-4c.25,0,.45-.08.62-.23.16-.15.24-.35.24-.6s-.08-.45-.24-.61-.37-.24-.62-.24h-10.5c-.25,0-.45.08-.62.24s-.24.37-.24.61v18.31c0,.25.08.45.24.62s.37.24.62.24h10.5c.25,0,.45-.08.62-.23s.24-.35.24-.6c0-.23-.08-.43-.24-.6-.16-.17-.37-.26-.62-.26h-9.55v-7.78h8.27c.25,0,.45-.08.62-.23.16-.15.24-.35.24-.6s-.08-.45-.24-.62-.37-.24-.62-.24h-8.27v-7.18h9.55Zm21.53,16.79c.29.19.43.43.43.72,0,.09-.04.22-.11.37-.08.13-.18.24-.31.32-.13.08-.28.11-.43.11-.19,0-.35-.04-.49-.11-.53-.31-.96-.8-1.29-1.49s-.49-1.78-.49-3.29c0-1.33-.37-2.27-1.12-2.82-.74-.54-1.63-.81-2.66-.81h-6.35v7.69c0,.25-.08.45-.23.62-.15.16-.35.24-.6.24-.27,0-.5-.08-.69-.24s-.29-.37-.29-.62v-18.31c0-.25.08-.45.24-.61s.37-.24.62-.24h7.72c1.09,0,2.06.23,2.92.7.86.47,1.53,1.11,2.02,1.93.49.82.73,1.75.73,2.78,0,1.22-.32,2.29-.96,3.22-.64.93-1.47,1.56-2.5,1.9.84.32,1.53.87,2.06,1.64.53.77.81,1.71.83,2.82.02,1.18.1,2.01.24,2.49s.38.81.7,1Zm-4.09-9.24c.57-.38,1.03-.9,1.37-1.54.34-.65.51-1.39.51-2.23,0-1.09-.37-1.99-1.1-2.7-.73-.71-1.69-1.07-2.87-1.07h-6.64v8.21h6.87c.67-.06,1.29-.28,1.86-.66Zm12.04-9.24c-.27,0-.49.08-.66.24s-.26.38-.26.64v18.25c0,.27.08.48.24.64s.38.24.64.24c.25,0,.46-.09.63-.26.17-.17.27-.38.29-.63v-18.25c0-.25-.09-.46-.26-.63s-.38-.26-.63-.26Zm20.09,1.69c.25,0,.45-.08.62-.23.16-.15.24-.35.24-.6s-.08-.45-.24-.61-.37-.24-.62-.24h-10.5c-.25,0-.45.08-.62.24s-.24.37-.24.61v18.31c0,.25.08.45.24.62s.37.24.62.24h10.5c.25,0,.45-.08.62-.23s.24-.35.24-.6c0-.23-.08-.43-.24-.6-.16-.17-.37-.26-.62-.26h-9.55v-7.78h8.27c.25,0,.45-.08.62-.23.16-.15.24-.35.24-.6s-.08-.45-.24-.62-.37-.24-.62-.24h-8.27v-7.18h9.55Zm21.56-1.69c-.23,0-.42.08-.57.23s-.23.34-.23.57v16.13l-12.33-16.62c-.15-.21-.38-.31-.69-.31-.23,0-.42.08-.59.23s-.24.36-.24.63v18.39c0,.21.08.39.23.54.15.15.34.23.57.23.21,0,.4-.08.56-.23s.24-.33.24-.54v-16.05l12.27,16.53c.08.08.18.14.3.2.12.06.25.09.39.09.25,0,.46-.08.63-.24.17-.16.26-.39.26-.67v-18.31c0-.23-.07-.42-.21-.57-.14-.15-.34-.23-.59-.23Zm13.28,2.52c1.25-.72,2.65-1.09,4.19-1.09,1.81,0,3.48.51,5.01,1.52.15.1.3.14.46.14.27,0,.49-.1.66-.31.13-.21.2-.4.2-.57,0-.3-.14-.54-.43-.71-.82-.55-1.74-.98-2.76-1.29-1.02-.31-2.06-.46-3.13-.46-1.85,0-3.54.44-5.06,1.33-1.53.89-2.74,2.12-3.63,3.69-.9,1.57-1.34,3.32-1.34,5.25s.45,3.79,1.36,5.35c.91,1.56,2.13,2.78,3.66,3.65,1.53.87,3.21,1.3,5.02,1.3,1.03,0,2.09-.17,3.17-.5,1.09-.33,2-.75,2.75-1.24.27-.15.4-.38.4-.69,0-.21-.07-.39-.2-.54-.17-.23-.39-.34-.66-.34-.17,0-.33.05-.49.14-1.51.99-3.17,1.49-4.98,1.49-1.53,0-2.91-.36-4.16-1.07-1.25-.71-2.24-1.73-2.96-3.03-.73-1.31-1.09-2.81-1.09-4.5s.36-3.14,1.07-4.45c.71-1.31,1.7-2.32,2.95-3.05Zm27.73-.83c.25,0,.45-.08.62-.23.16-.15.24-.35.24-.6s-.08-.45-.24-.61-.37-.24-.62-.24h-10.5c-.25,0-.45.08-.62.24s-.24.37-.24.61v18.31c0,.25.08.45.24.62s.37.24.62.24h10.5c.25,0,.45-.08.62-.23s.24-.35.24-.6c0-.23-.08-.43-.24-.6-.16-.17-.37-.26-.62-.26h-9.55v-7.78h8.27c.25,0,.45-.08.62-.23.16-.15.24-.35.24-.6s-.08-.45-.24-.62-.37-.24-.62-.24h-8.27v-7.18h9.55Zm22.49,3.3c.62,1.52.93,3.19.93,5.02s-.31,3.58-.93,5.09c-.62,1.51-1.55,2.7-2.8,3.59s-2.79,1.33-4.62,1.33h-7.29c-.25,0-.45-.08-.62-.24s-.24-.37-.24-.62v-18.31c0-.25.08-.45.24-.61s.37-.24.62-.24h7.29c1.83,0,3.37.45,4.62,1.36,1.25.91,2.18,2.12,2.8,3.63Zm-.9,5.02c0-1.54-.24-2.94-.71-4.19-.48-1.25-1.23-2.25-2.25-3-1.02-.75-2.3-1.13-3.85-1.13h-6.06v16.65h6.06c2.29,0,4-.77,5.12-2.3s1.69-3.54,1.69-6.02Zm23.27-3.12c-.54-.32-1.13-.49-1.76-.49s-1.22.16-1.76.49c-.54.32-.98.76-1.3,1.3-.32.54-.49,1.13-.49,1.76s.16,1.22.49,1.76c.32.54.76.98,1.3,1.3.54.33,1.13.49,1.76.49s1.22-.16,1.76-.49c.54-.32.98-.76,1.3-1.3.32-.54.49-1.13.49-1.76s-.16-1.22-.49-1.76c-.32-.54-.76-.98-1.3-1.3Zm39,14.96c.15.15.23.33.23.54,0,.42-.28.83-.84,1.23s-1.26.73-2.09.99c-.83.26-1.6.39-2.3.39-1.09,0-2-.12-2.73-.36-.73-.24-1.54-.58-2.42-1.02-.71-.38-1.31-.66-1.8-.83-.5-.17-1.08-.26-1.75-.26-.25,0-.47.03-.67.09-.2.06-.44.15-.73.29-.42.19-.72.29-.92.29-.23,0-.42-.08-.59-.26s-.24-.37-.24-.6c0-.38.16-.63.49-.74l3.75-1.34c-1.66-.17-3.13-.72-4.41-1.64-1.28-.92-2.27-2.13-2.99-3.62-.71-1.49-1.07-3.15-1.07-4.98,0-1.98.41-3.76,1.23-5.32.82-1.56,1.95-2.78,3.4-3.66,1.45-.88,3.1-1.32,4.95-1.32s3.5.44,4.95,1.32c1.45.88,2.58,2.1,3.4,3.66.82,1.56,1.23,3.34,1.23,5.32,0,1.7-.31,3.25-.93,4.66-.62,1.41-1.48,2.58-2.59,3.52-1.11.93-2.39,1.56-3.86,1.89l-3,1c.55.06,1.05.18,1.5.36.45.18,1.01.43,1.7.76.78.4,1.48.7,2.09.9.61.2,1.3.3,2.06.3.65,0,1.21-.08,1.67-.26.47-.17.92-.39,1.36-.66.17-.1.35-.24.54-.43.13-.11.27-.21.42-.3s.28-.13.42-.13c.21,0,.39.08.54.23Zm-11.5-3.26c1.51,0,2.85-.36,4.02-1.09,1.17-.72,2.09-1.74,2.75-3.05.66-1.31.99-2.79.99-4.45s-.33-3.14-.99-4.45c-.66-1.31-1.57-2.32-2.75-3.05-1.17-.72-2.51-1.09-4.02-1.09s-2.85.36-4.02,1.09c-1.17.73-2.09,1.74-2.75,3.05-.66,1.31-.99,2.79-.99,4.45s.33,3.14.99,4.45c.66,1.31,1.57,2.32,2.75,3.05,1.17.73,2.51,1.09,4.02,1.09Zm30.19-18.59c-.25,0-.45.08-.6.24-.15.16-.23.37-.23.61v11.84c0,1.07-.26,2.05-.79,2.95-.52.9-1.23,1.61-2.12,2.13s-1.85.79-2.9.79-1.99-.26-2.88-.79-1.59-1.24-2.1-2.13c-.51-.9-.77-1.88-.77-2.95v-11.84c0-.25-.09-.45-.26-.61s-.37-.24-.6-.24c-.29,0-.51.08-.67.24s-.24.37-.24.61v11.84c0,1.39.33,2.67,1,3.83.67,1.16,1.57,2.08,2.72,2.75,1.14.67,2.41,1,3.8,1s2.63-.33,3.78-1c1.14-.67,2.05-1.58,2.72-2.75.67-1.16,1-2.44,1-3.83v-11.84c0-.25-.08-.45-.24-.61-.16-.16-.37-.24-.62-.24Zm22.7,18.88c.04.15.06.27.06.34,0,.25-.08.45-.26.6s-.37.23-.6.23c-.19,0-.36-.05-.5-.16-.14-.1-.25-.24-.33-.42l-2.15-5.23h-9.3l-2.12,5.23c-.15.38-.41.57-.77.57-.27,0-.47-.07-.6-.2-.13-.13-.21-.31-.23-.54v-.09c0-.11,0-.2.03-.26l7.55-18.48c.15-.38.44-.57.86-.57.19,0,.36.05.5.16.14.1.25.24.33.42l7.52,18.39Zm-4.46-6.32l-4-9.78-3.95,9.78h7.95Zm21.4,5.78h-9.27v-17.48c0-.25-.09-.45-.26-.61s-.38-.24-.63-.24c-.27,0-.49.08-.66.24s-.26.37-.26.61v18.31c0,.25.08.45.24.62s.37.24.62.24h10.21c.25,0,.45-.08.62-.24s.24-.37.24-.62-.08-.45-.24-.6c-.16-.15-.37-.23-.62-.23Zm7.48-18.34c-.27,0-.49.08-.66.24s-.26.38-.26.64v18.25c0,.27.08.48.24.64s.38.24.64.24c.25,0,.46-.09.63-.26.17-.17.27-.38.29-.63v-18.25c0-.25-.09-.46-.26-.63s-.38-.26-.63-.26Zm20,0h-10.41c-.25,0-.45.08-.62.24s-.24.37-.24.61v18.31c0,.25.08.45.24.62s.38.24.64.24c.25,0,.45-.08.61-.24s.24-.37.24-.62v-8.64h8.24c.25,0,.45-.08.62-.23s.24-.35.24-.6-.08-.45-.24-.6c-.16-.15-.37-.23-.62-.23h-8.24v-7.18h9.53c.25,0,.45-.08.61-.24s.24-.36.24-.59c0-.25-.08-.45-.24-.61s-.37-.24-.61-.24Zm7.84,0c-.27,0-.49.08-.66.24s-.26.38-.26.64v18.25c0,.27.08.48.24.64s.38.24.64.24c.25,0,.46-.09.63-.26.17-.17.27-.38.29-.63v-18.25c0-.25-.09-.46-.26-.63s-.38-.26-.63-.26Zm20.09,1.69c.25,0,.45-.08.62-.23.16-.15.24-.35.24-.6s-.08-.45-.24-.61-.37-.24-.62-.24h-10.5c-.25,0-.45.08-.62.24s-.24.37-.24.61v18.31c0,.25.08.45.24.62s.37.24.62.24h10.5c.25,0,.45-.08.62-.23s.24-.35.24-.6c0-.23-.08-.43-.24-.6-.16-.17-.37-.26-.62-.26h-9.55v-7.78h8.27c.25,0,.45-.08.62-.23.16-.15.24-.35.24-.6s-.08-.45-.24-.62-.37-.24-.62-.24h-8.27v-7.18h9.55Zm22.49,3.3c.62,1.52.93,3.19.93,5.02s-.31,3.58-.93,5.09c-.62,1.51-1.55,2.7-2.8,3.59s-2.79,1.33-4.62,1.33h-7.29c-.25,0-.45-.08-.62-.24s-.24-.37-.24-.62v-18.31c0-.25.08-.45.24-.61s.37-.24.62-.24h7.29c1.83,0,3.37.45,4.62,1.36,1.25.91,2.18,2.12,2.8,3.63Zm-.9,5.02c0-1.54-.24-2.94-.71-4.19-.48-1.25-1.23-2.25-2.25-3-1.02-.75-2.3-1.13-3.85-1.13h-6.06v16.65h6.06c2.29,0,4-.77,5.12-2.3s1.69-3.54,1.69-6.02Zm23.27-3.12c-.54-.32-1.13-.49-1.76-.49s-1.22.16-1.76.49c-.54.32-.98.76-1.3,1.3-.32.54-.49,1.13-.49,1.76s.16,1.22.49,1.76c.32.54.76.98,1.3,1.3.54.33,1.13.49,1.76.49s1.22-.16,1.76-.49c.54-.32.98-.76,1.3-1.3.32-.54.49-1.13.49-1.76s-.16-1.22-.49-1.76c-.32-.54-.76-.98-1.3-1.3Zm20.15-6.89c-.27,0-.49.08-.66.24s-.26.38-.26.64v18.25c0,.27.08.48.24.64s.38.24.64.24c.25,0,.46-.09.63-.26.17-.17.27-.38.29-.63v-18.25c0-.25-.09-.46-.26-.63s-.38-.26-.63-.26Zm23.38,0c-.23,0-.42.08-.57.23s-.23.34-.23.57v16.13l-12.33-16.62c-.15-.21-.38-.31-.69-.31-.23,0-.42.08-.59.23s-.24.36-.24.63v18.39c0,.21.08.39.23.54.15.15.34.23.57.23.21,0,.4-.08.56-.23s.24-.33.24-.54v-16.05l12.27,16.53c.08.08.18.14.3.2.12.06.25.09.39.09.25,0,.46-.08.63-.24.17-.16.26-.39.26-.67v-18.31c0-.23-.07-.42-.21-.57-.14-.15-.34-.23-.59-.23Zm17.83,10.27c-.86-.42-1.96-.83-3.32-1.23-1.56-.5-2.76-1.04-3.6-1.63-.84-.59-1.26-1.44-1.26-2.55s.44-1.91,1.32-2.53c.88-.62,2.01-.93,3.4-.93.93,0,1.83.19,2.69.57.86.38,1.54.88,2.06,1.49.13.13.3.2.49.2.23,0,.44-.09.63-.27.19-.18.29-.38.29-.59,0-.23-.14-.5-.43-.83-.61-.72-1.43-1.28-2.45-1.67-1.02-.39-2.11-.59-3.28-.59-1.28,0-2.41.22-3.39.67-.98.45-1.75,1.06-2.29,1.84-.54.78-.82,1.68-.82,2.69,0,1.12.26,2.05.77,2.79.51.73,1.19,1.32,2.02,1.76.83.44,1.85.84,3.08,1.2,1.12.36,2.05.72,2.77,1.06.72.34,1.31.79,1.76,1.33.45.54.67,1.23.67,2.05,0,1.05-.45,1.9-1.36,2.55-.91.65-2.04.97-3.42.97-2.23,0-4.09-.82-5.58-2.46-.19-.19-.4-.29-.63-.29s-.43.1-.62.29c-.18.19-.27.4-.27.63,0,.27.11.5.34.69.99.97,2.02,1.69,3.08,2.15s2.27.69,3.65.69c1.28,0,2.42-.23,3.42-.69s1.78-1.08,2.35-1.87c.56-.79.84-1.67.84-2.65,0-1.26-.27-2.27-.82-3.05-.54-.77-1.24-1.37-2.1-1.79Zm23.52-10.27c-.25,0-.45.08-.6.24-.15.16-.23.37-.23.61v11.84c0,1.07-.26,2.05-.79,2.95-.52.9-1.23,1.61-2.12,2.13s-1.85.79-2.9.79-1.99-.26-2.88-.79-1.59-1.24-2.1-2.13c-.51-.9-.77-1.88-.77-2.95v-11.84c0-.25-.09-.45-.26-.61s-.37-.24-.6-.24c-.29,0-.51.08-.67.24s-.24.37-.24.61v11.84c0,1.39.33,2.67,1,3.83.67,1.16,1.57,2.08,2.72,2.75,1.14.67,2.41,1,3.8,1s2.63-.33,3.78-1c1.14-.67,2.05-1.58,2.72-2.75.67-1.16,1-2.44,1-3.83v-11.84c0-.25-.08-.45-.24-.61-.16-.16-.37-.24-.62-.24Zm23.27,18.48c.29.19.43.43.43.72,0,.09-.04.22-.11.37-.08.13-.18.24-.31.32-.13.08-.28.11-.43.11-.19,0-.35-.04-.49-.11-.53-.31-.96-.8-1.29-1.49s-.49-1.78-.49-3.29c0-1.33-.37-2.27-1.12-2.82-.74-.54-1.63-.81-2.66-.81h-6.35v7.69c0,.25-.08.45-.23.62-.15.16-.35.24-.6.24-.27,0-.5-.08-.69-.24s-.29-.37-.29-.62v-18.31c0-.25.08-.45.24-.61s.37-.24.62-.24h7.72c1.09,0,2.06.23,2.92.7.86.47,1.53,1.11,2.02,1.93.49.82.73,1.75.73,2.78,0,1.22-.32,2.29-.96,3.22-.64.93-1.47,1.56-2.5,1.9.84.32,1.53.87,2.06,1.64.53.77.81,1.71.83,2.82.02,1.18.1,2.01.24,2.49s.38.81.7,1Zm-4.09-9.24c.57-.38,1.03-.9,1.37-1.54.34-.65.51-1.39.51-2.23,0-1.09-.37-1.99-1.1-2.7-.73-.71-1.69-1.07-2.87-1.07h-6.64v8.21h6.87c.67-.06,1.29-.28,1.86-.66Zm22.48-7.55c.25,0,.45-.08.62-.23.16-.15.24-.35.24-.6s-.08-.45-.24-.61-.37-.24-.62-.24h-10.5c-.25,0-.45.08-.62.24s-.24.37-.24.61v18.31c0,.25.08.45.24.62s.37.24.62.24h10.5c.25,0,.45-.08.62-.23s.24-.35.24-.6c0-.23-.08-.43-.24-.6-.16-.17-.37-.26-.62-.26h-9.55v-7.78h8.27c.25,0,.45-.08.62-.23.16-.15.24-.35.24-.6s-.08-.45-.24-.62-.37-.24-.62-.24h-8.27v-7.18h9.55Zm23.42,8.32c0,1.89-.31,3.58-.93,5.09-.62,1.51-1.55,2.7-2.8,3.59s-2.79,1.33-4.62,1.33h-7.29c-.25,0-.45-.08-.62-.24s-.24-.37-.24-.62v-18.31c0-.25.08-.45.24-.61s.37-.24.62-.24h7.29c1.83,0,3.37.45,4.62,1.36,1.25.91,2.18,2.12,2.8,3.63.62,1.52.93,3.19.93,5.02Zm-1.83,0c0-1.54-.24-2.94-.71-4.19-.48-1.25-1.23-2.25-2.25-3-1.02-.75-2.3-1.13-3.85-1.13h-6.06v16.65h6.06c2.29,0,4-.77,5.12-2.3s1.69-3.54,1.69-6.02Z"/>
</svg>