<?xml version="1.0" encoding="UTF-8"?>
<svg id="Layer_2" data-name="Layer 2" xmlns="http://www.w3.org/2000/svg" viewBox="0 0 727.98 260.24">
  <defs>
    <style>
      .cls-1 {
        fill: #cdc6a5;
      }

      .cls-2 {
        fill: #2f3e46;
      }
    </style>
  </defs>
  <g>
    <rect class="cls-1" x="207.68" y="141.23" width="193.39" height="1"/>
    <rect class="cls-1" x="438.58" y="141.23" width="271.92" height="1"/>
  </g>
  <path class="cls-2" d="m213.25,125.59c-1.57.02-2.84.08-3.8.17v-1.38c1.57-.09,2.75-.28,3.56-.55.81-.28,1.35-.83,1.62-1.66.28-.83.42-2.08.42-3.74v-34.31c0-1.71-.14-2.96-.42-3.77-.28-.81-.82-1.36-1.62-1.66-.81-.3-2-.47-3.56-.52v-1.38c.97.05,2.24.09,3.8.14,1.57.05,3.25.07,5.05.07,1.61,0,3.22-.02,4.81-.07,1.59-.04,2.92-.09,3.98-.14v1.38c-1.57.05-2.76.22-3.56.52-.81.3-1.35.85-1.62,1.66-.28.81-.42,2.06-.42,3.77v16.32h22.48v-16.32c0-1.71-.14-2.96-.42-3.77-.28-.81-.82-1.36-1.63-1.66s-2-.47-3.56-.52v-1.38c1.06.05,2.4.09,4.01.14,1.61.05,3.2.07,4.77.07,1.8,0,3.48-.02,5.05-.07,1.57-.04,2.84-.09,3.8-.14v1.38c-1.57.05-2.76.22-3.56.52-.81.3-1.35.85-1.63,1.66s-.42,2.06-.42,3.77v34.31c0,1.66.14,2.91.42,3.74s.82,1.38,1.63,1.66c.81.28,1.99.46,3.56.55v1.38c-.97-.09-2.24-.15-3.8-.17-1.57-.02-3.25-.03-5.05-.03-1.57,0-3.16.01-4.77.03-1.62.02-2.95.08-4.01.17v-1.38c1.57-.09,2.76-.28,3.56-.55.81-.28,1.35-.83,1.63-1.66.28-.83.42-2.08.42-3.74v-16.6h-22.48v16.6c0,1.66.14,2.91.42,3.74.28.83.82,1.38,1.62,1.66.81.28,1.99.46,3.56.55v1.38c-1.06-.09-2.39-.15-3.98-.17-1.59-.02-3.19-.03-4.81-.03-1.8,0-3.48.01-5.05.03Zm74.28-8.68l1.38.55c-.51,1.52-1.34,3-2.49,4.43-1.15,1.43-2.61,2.59-4.36,3.49-1.75.9-3.78,1.35-6.09,1.35-3.32,0-6.17-.76-8.54-2.28-2.38-1.52-4.2-3.63-5.46-6.33-1.27-2.7-1.9-5.8-1.9-9.3,0-4.06.65-7.55,1.94-10.48,1.29-2.93,3.11-5.19,5.46-6.78,2.35-1.59,5.1-2.39,8.23-2.39,4.06,0,7.23,1.23,9.51,3.7,2.28,2.47,3.42,6.31,3.42,11.52h-21.62c-.07.6-.13,1.24-.17,1.94-.05.83-.07,1.66-.07,2.49,0,3.14.51,5.83,1.52,8.09,1.01,2.26,2.34,3.98,3.98,5.15,1.64,1.18,3.33,1.76,5.08,1.76,1.38,0,2.7-.22,3.94-.66,1.25-.44,2.4-1.16,3.46-2.18,1.06-1.01,1.98-2.38,2.77-4.08Zm-20.62-13.83h15.09c.09-2.26-.09-4.35-.55-6.26-.46-1.91-1.19-3.45-2.18-4.6-.99-1.15-2.27-1.73-3.84-1.73-2.12,0-4,1.06-5.64,3.18-1.55,2.01-2.51,5.16-2.88,9.41Zm58.44,19.44l.76,1.18c-.97.74-1.89,1.35-2.77,1.83s-2.05.73-3.53.73c-1.34,0-2.44-.23-3.32-.69-.88-.46-1.53-1.14-1.97-2.04-.44-.9-.66-2.04-.66-3.42-1.25,2.08-2.73,3.62-4.46,4.63s-3.68,1.52-5.84,1.52c-1.89,0-3.53-.36-4.91-1.07-1.38-.71-2.43-1.72-3.15-3.01-.72-1.29-1.07-2.79-1.07-4.5,0-2.03.47-3.69,1.42-4.98.94-1.29,2.16-2.33,3.63-3.11,1.47-.78,3.03-1.44,4.67-1.97,1.64-.53,3.19-1.04,4.67-1.52,1.48-.48,2.69-1.05,3.63-1.7.94-.64,1.42-1.5,1.42-2.56v-4.29c0-1.94-.29-3.41-.87-4.43-.58-1.01-1.35-1.7-2.32-2.04-.97-.35-2.05-.52-3.25-.52s-2.39.16-3.7.48c-1.31.32-2.36.99-3.15,2.01.88.18,1.64.65,2.28,1.38.64.74.97,1.68.97,2.84s-.37,2.06-1.11,2.73c-.74.67-1.68,1-2.84,1-1.34,0-2.32-.43-2.94-1.28-.62-.85-.93-1.81-.93-2.87,0-1.2.3-2.17.9-2.91.6-.74,1.36-1.43,2.28-2.08,1.06-.74,2.43-1.37,4.12-1.9,1.68-.53,3.58-.8,5.71-.8,1.89,0,3.5.22,4.84.66,1.34.44,2.44,1.07,3.32,1.9,1.2,1.11,1.98,2.46,2.35,4.05.37,1.59.55,3.49.55,5.71v19.23c0,1.15.17,1.98.52,2.49.35.51.89.76,1.62.76.51,0,.99-.11,1.45-.35.46-.23,1.01-.6,1.66-1.11Zm-11.48-17.85c-.55.78-1.36,1.44-2.42,1.97-1.06.53-2.21,1.06-3.46,1.59-1.25.53-2.43,1.15-3.56,1.87s-2.06,1.65-2.8,2.8c-.74,1.15-1.11,2.65-1.11,4.5s.5,3.32,1.49,4.43c.99,1.11,2.34,1.66,4.05,1.66,1.52,0,2.94-.44,4.25-1.31s2.5-2.19,3.56-3.94v-13.56Zm32.62,21.1v-1.45c-1.89,0-3.24-.35-4.05-1.04s-1.21-2.01-1.21-3.94v-47.8c-1.01.32-2.13.56-3.35.73-1.22.16-2.5.24-3.84.24s-2.81-.07-4.29-.21v1.45c2.03,0,3.41.5,4.15,1.49.74.99,1.11,2.52,1.11,4.6v39.5c0,1.94-.4,3.25-1.21,3.94-.81.69-2.16,1.04-4.05,1.04v1.45c.78-.04,1.98-.1,3.6-.17s3.21-.1,4.77-.1,3.22.03,4.81.1,2.78.13,3.56.17Zm21.78-3.22c-1.01,1.13-2.21,1.7-3.6,1.7s-2.47-.44-3.25-1.31-1.18-2.4-1.18-4.57v-26.77h10.24v-1.38h-10.24v-11.55c-.88.32-1.84.55-2.91.69-1.06.14-2.17.23-3.32.28v10.58h-6.64v1.38h6.64v23.17c0,2.44.2,4.4.59,5.88s1.1,2.74,2.11,3.8c.78.74,1.68,1.3,2.7,1.7,1.01.39,2.31.59,3.87.59,2.81,0,4.9-.92,6.26-2.77,1.36-1.84,2.27-4.1,2.73-6.78l-1.38-.35c-.74,2.67-1.61,4.58-2.63,5.71Zm44.36,3.22v-1.45c-1.89,0-3.24-.35-4.05-1.04s-1.21-2.01-1.21-3.94v-18.47c0-2.35-.19-4.22-.55-5.6-.37-1.38-.99-2.54-1.87-3.46-.79-.83-1.76-1.48-2.94-1.94s-2.64-.69-4.39-.69c-2.35,0-4.6.6-6.74,1.8-2.14,1.2-3.82,3.37-5.02,6.5v-25.87c-1.01.32-2.13.57-3.35.73-1.22.16-2.5.24-3.84.24s-2.81-.07-4.29-.21v1.45c2.03,0,3.41.5,4.15,1.49.74.99,1.11,2.52,1.11,4.6v39.43c0,1.94-.4,3.25-1.21,3.94-.81.69-2.16,1.04-4.05,1.04v1.45c.78-.04,1.98-.1,3.6-.17,1.61-.07,3.18-.1,4.7-.1s3.01.03,4.46.1c1.45.07,2.55.13,3.29.17v-1.45c-1.66,0-2.84-.35-3.53-1.04-.69-.69-1.04-2.01-1.04-3.94v-15.43c0-2.44.42-4.61,1.25-6.5.83-1.89,1.97-3.37,3.42-4.43,1.45-1.06,3.12-1.59,5.02-1.59,1.66,0,2.89.37,3.7,1.11.81.74,1.33,1.71,1.56,2.91.23,1.2.35,2.51.35,3.94v19.99c0,1.94-.35,3.25-1.04,3.94-.69.69-1.87,1.04-3.53,1.04v1.45c.74-.04,1.83-.1,3.29-.17,1.45-.07,2.94-.1,4.46-.1s3.09.03,4.7.1c1.61.07,2.81.13,3.6.17Zm33.89-34.24v-1.38c-.74.05-1.53.09-2.39.14-.85.05-1.81.07-2.87.07-.69,0-1.33-.01-1.9-.04-.58-.02-1.17-.04-1.76-.07-.6-.02-1.31-.06-2.14-.1v1.38c1.66.09,2.91.37,3.74.83s1.3,1.14,1.42,2.04c.11.9-.13,2.11-.73,3.63l-7.66,20.01-8.32-20.64c-.78-1.94-1.06-3.31-.83-4.12.23-.81.8-1.29,1.69-1.45.9-.16,1.92-.24,3.08-.24v-1.45c-1.38.09-2.87.18-4.46.28-1.59.09-3.1.14-4.53.14-1.29,0-2.49-.03-3.6-.1s-2.17-.17-3.18-.31v1.45c.55,0,1.26.2,2.11.59.85.39,1.72,1.49,2.59,3.29l12.55,30.2-2.45,6.32c-.74,1.89-1.59,3.26-2.56,4.12-.97.85-2.08,1.28-3.32,1.28h-.17c-.07,0-.15-.02-.24-.07.51-.28.94-.67,1.31-1.18.37-.51.55-1.15.55-1.94,0-1.06-.35-1.87-1.04-2.42-.69-.55-1.52-.83-2.49-.83-1.15,0-2.05.33-2.7,1-.65.67-.97,1.56-.97,2.66,0,.88.21,1.63.62,2.25.42.62.98,1.09,1.69,1.42.71.32,1.51.48,2.39.48.83,0,1.75-.13,2.77-.38,1.01-.25,1.89-.73,2.63-1.42.55-.51,1.07-1.15,1.56-1.94s.96-1.75,1.42-2.91l2.35-6.02,11.34-29.74c.64-1.75,1.34-2.97,2.08-3.67.74-.69,1.54-1.08,2.42-1.18Zm74.43,27.81v-18.47c0-2.17-.16-3.99-.48-5.46-.32-1.47-.92-2.67-1.8-3.6-.79-.83-1.78-1.48-2.97-1.94-1.2-.46-2.61-.69-4.22-.69-2.21,0-4.38.59-6.5,1.76-2.1,1.17-3.78,3.32-5.02,6.46-.08-.72-.18-1.4-.31-2-.32-1.47-.92-2.67-1.8-3.6-.78-.83-1.78-1.48-2.97-1.94-1.2-.46-2.61-.69-4.22-.69-2.21,0-4.36.65-6.43,1.94s-3.71,3.44-4.91,6.43v-8.16c-1.01.32-2.13.57-3.36.73-1.22.16-2.5.24-3.84.24s-2.81-.07-4.29-.21v1.45c2.03,0,3.41.5,4.15,1.49.74.99,1.11,2.53,1.11,4.6v21.65c0,1.94-.4,3.25-1.21,3.94s-2.16,1.04-4.05,1.04v1.45c.78-.04,1.98-.1,3.6-.17,1.61-.07,3.18-.1,4.7-.1s3.01.03,4.46.1c1.45.07,2.55.13,3.29.17v-1.45c-1.66,0-2.84-.35-3.53-1.04-.69-.69-1.04-2.01-1.04-3.94v-15.36c0-2.35.4-4.48,1.21-6.4.81-1.91,1.91-3.42,3.32-4.53,1.41-1.11,3.01-1.66,4.81-1.66,1.66,0,2.86.37,3.6,1.11.74.74,1.2,1.71,1.38,2.91.18,1.2.28,2.51.28,3.94v19.99c0,1.94-.35,3.25-1.04,3.94-.69.69-1.87,1.04-3.53,1.04v1.45c.74-.04,1.83-.1,3.29-.17,1.45-.07,2.94-.1,4.46-.1s3.09.03,4.7.1c1.61.07,2.81.13,3.6.17v-1.45c-1.89,0-3.24-.35-4.05-1.04s-1.21-2.01-1.21-3.94v-15.43c0-2.35.4-4.47,1.21-6.36.81-1.89,1.91-3.39,3.32-4.5,1.41-1.11,3.01-1.66,4.81-1.66,1.66,0,2.86.37,3.6,1.11.74.74,1.2,1.71,1.38,2.91.18,1.2.28,2.51.28,3.94v19.99c0,1.94-.35,3.25-1.04,3.94-.69.69-1.87,1.04-3.53,1.04v1.45c.74-.04,1.83-.1,3.29-.17,1.45-.07,2.94-.1,4.46-.1s3.09.03,4.7.1c1.61.07,2.81.13,3.6.17v-1.45c-1.89,0-3.24-.35-4.05-1.04s-1.21-2.01-1.21-3.94Zm38.95,3.56c-.76-.99-1.14-2.53-1.14-4.6v-28.91c-1.01.32-2.13.57-3.35.73-1.22.16-2.5.24-3.84.24s-2.81-.07-4.29-.21v1.45c2.03,0,3.41.5,4.15,1.49.74.99,1.11,2.53,1.11,4.6v14.32c0,2.35-.4,4.47-1.21,6.36-.81,1.89-1.91,3.39-3.32,4.5-1.41,1.11-3.01,1.66-4.81,1.66-1.66,0-2.86-.37-3.6-1.11-.74-.74-1.2-1.71-1.38-2.91-.18-1.2-.28-2.51-.28-3.94v-27.18c-1.01.32-2.13.57-3.35.73-1.22.16-2.5.24-3.84.24s-2.81-.07-4.29-.21v1.45c2.03,0,3.41.5,4.15,1.49.74.99,1.11,2.53,1.11,4.6v17.36c0,2.17.16,3.99.48,5.46.32,1.48.92,2.67,1.8,3.6.78.83,1.77,1.48,2.97,1.94,1.2.46,2.61.69,4.22.69,2.21,0,4.37-.63,6.47-1.9,2.1-1.27,3.72-3.4,4.88-6.4v8.16c1.01-.37,2.13-.62,3.36-.76,1.22-.14,2.5-.21,3.84-.21,1.43,0,2.86.07,4.29.21v-1.45c-1.98,0-3.35-.5-4.12-1.49Zm11.9,1.04c.37-.39.78-.4,1.25-.03.46.37.93.71,1.42,1.04.48.32.96.6,1.42.83.83.32,1.69.56,2.59.73.9.16,1.86.24,2.87.24,2.12,0,4.07-.37,5.84-1.11,1.77-.74,3.22-1.82,4.32-3.25,1.11-1.43,1.66-3.2,1.66-5.33,0-1.89-.43-3.53-1.28-4.91-.85-1.38-2-2.65-3.42-3.8-1.43-1.15-3.02-2.28-4.77-3.39-1.57-1.01-3.02-1.95-4.36-2.8-1.34-.85-2.42-1.77-3.25-2.77-.83-.99-1.25-2.18-1.25-3.56,0-1.75.54-3.08,1.63-3.98,1.08-.9,2.43-1.35,4.05-1.35,2.07,0,3.76.52,5.05,1.56,1.29,1.04,2.27,2.36,2.94,3.98.67,1.61,1.14,3.27,1.42,4.98h1.59c0-3,.02-5.38.07-7.16s.12-3.31.21-4.6h-1.59c-.32,2.91-1.25,3.74-2.77,2.49-.6-.51-1.55-1.06-2.84-1.66-1.29-.6-2.86-.9-4.7-.9s-3.48.31-5.05.93c-1.57.62-2.83,1.59-3.77,2.91-.95,1.31-1.42,3.01-1.42,5.08,0,1.89.45,3.5,1.35,4.84.9,1.34,2.08,2.54,3.53,3.6,1.45,1.06,3.01,2.12,4.67,3.18,2.26,1.43,4.13,2.79,5.6,4.08,1.48,1.29,2.21,2.95,2.21,4.98,0,1.62-.32,2.91-.97,3.87-.65.97-1.44,1.66-2.39,2.08s-1.88.62-2.8.62c-2.31,0-4.11-.54-5.4-1.63-1.29-1.08-2.24-2.59-2.84-4.53-.6-1.94-1.06-4.2-1.38-6.78h-1.59c0,3.5-.02,6.32-.07,8.44-.05,2.12-.12,3.92-.21,5.4h1.59c.18-1.15.46-1.92.83-2.32Zm42.15,2.8c2.49,0,4.59-.48,6.29-1.45,1.71-.97,3.09-2.2,4.15-3.7,1.06-1.5,1.82-2.99,2.28-4.46l-1.31-.48c-.79,1.75-1.73,3.15-2.84,4.19-1.11,1.04-2.28,1.79-3.53,2.25s-2.47.69-3.67.69c-1.8,0-3.45-.52-4.95-1.56-1.5-1.04-2.71-2.75-3.63-5.15-.92-2.4-1.38-5.62-1.38-9.68,0-3.27.3-6.01.9-8.2.6-2.19,1.38-3.92,2.35-5.19.97-1.27,2.03-2.18,3.18-2.73,1.15-.55,2.3-.83,3.46-.83,1.34,0,2.59.28,3.77.83,1.18.55,1.99,1.25,2.46,2.08-.78.19-1.46.6-2.04,1.25-.58.65-.87,1.5-.87,2.56s.38,1.96,1.14,2.56c.76.6,1.65.9,2.66.9s1.94-.33,2.63-1c.69-.67,1.04-1.63,1.04-2.87,0-1.06-.28-2.04-.83-2.94s-1.36-1.7-2.42-2.39c-1.11-.74-2.35-1.29-3.74-1.66-1.38-.37-2.81-.55-4.29-.55-3.14,0-5.93.82-8.37,2.46-2.44,1.64-4.35,3.9-5.71,6.78-1.36,2.88-2.04,6.21-2.04,10s.68,7.04,2.04,9.79c1.36,2.74,3.19,4.85,5.5,6.33,2.3,1.48,4.89,2.21,7.75,2.21Zm27.02-7.4v-47.8c-1.01.32-2.13.56-3.35.73-1.22.16-2.5.24-3.84.24s-2.81-.07-4.29-.21v1.45c2.03,0,3.41.5,4.15,1.49.74.99,1.11,2.52,1.11,4.6v39.5c0,1.94-.4,3.25-1.21,3.94-.81.69-2.16,1.04-4.05,1.04v1.45c.78-.04,1.98-.1,3.6-.17s3.21-.1,4.77-.1,3.22.03,4.81.1,2.78.13,3.56.17v-1.45c-1.89,0-3.24-.35-4.05-1.04s-1.21-2.01-1.21-3.94Zm35.64-2.42l1.38.55c-.51,1.52-1.34,3-2.49,4.43-1.15,1.43-2.61,2.59-4.36,3.49-1.75.9-3.78,1.35-6.09,1.35-3.32,0-6.17-.76-8.54-2.28-2.38-1.52-4.2-3.63-5.46-6.33-1.27-2.7-1.9-5.8-1.9-9.3,0-4.06.65-7.55,1.94-10.48,1.29-2.93,3.11-5.19,5.46-6.78,2.35-1.59,5.1-2.39,8.23-2.39,4.06,0,7.23,1.23,9.51,3.7,2.28,2.47,3.42,6.31,3.42,11.52h-21.62c-.07.6-.13,1.24-.17,1.94-.05.83-.07,1.66-.07,2.49,0,3.14.51,5.83,1.52,8.09,1.01,2.26,2.34,3.98,3.98,5.15,1.64,1.18,3.33,1.76,5.08,1.76,1.38,0,2.7-.22,3.94-.66,1.25-.44,2.4-1.16,3.46-2.18,1.06-1.01,1.98-2.38,2.77-4.08Zm-20.62-13.83h15.09c.09-2.26-.09-4.35-.55-6.26-.46-1.91-1.19-3.45-2.18-4.6-.99-1.15-2.27-1.73-3.84-1.73-2.12,0-4,1.06-5.64,3.18-1.55,2.01-2.51,5.16-2.88,9.41Zm50.57,9.06c-.85-1.38-2-2.65-3.42-3.8-1.43-1.15-3.02-2.28-4.77-3.39-1.57-1.01-3.02-1.95-4.36-2.8-1.34-.85-2.42-1.77-3.25-2.77-.83-.99-1.25-2.18-1.25-3.56,0-1.75.54-3.08,1.63-3.98,1.08-.9,2.43-1.35,4.05-1.35,2.07,0,3.76.52,5.05,1.56,1.29,1.04,2.27,2.36,2.94,3.98.67,1.61,1.14,3.27,1.42,4.98h1.59c0-3,.02-5.38.07-7.16s.12-3.31.21-4.6h-1.59c-.32,2.91-1.25,3.74-2.77,2.49-.6-.51-1.55-1.06-2.84-1.66-1.29-.6-2.86-.9-4.7-.9s-3.48.31-5.05.93c-1.57.62-2.83,1.59-3.77,2.91-.95,1.31-1.42,3.01-1.42,5.08,0,1.89.45,3.5,1.35,4.84.9,1.34,2.08,2.54,3.53,3.6,1.45,1.06,3.01,2.12,4.67,3.18,2.26,1.43,4.13,2.79,5.6,4.08,1.48,1.29,2.21,2.95,2.21,4.98,0,1.62-.32,2.91-.97,3.87-.65.97-1.44,1.66-2.39,2.08s-1.88.62-2.8.62c-2.31,0-4.11-.54-5.4-1.63-1.29-1.08-2.24-2.59-2.84-4.53-.6-1.94-1.06-4.2-1.38-6.78h-1.59c0,3.5-.02,6.32-.07,8.44-.05,2.12-.12,3.92-.21,5.4h1.59c.18-1.15.46-1.92.83-2.32.37-.39.78-.4,1.25-.03.46.37.93.71,1.42,1.04.48.32.96.6,1.42.83.83.32,1.69.56,2.59.73.9.16,1.86.24,2.87.24,2.12,0,4.07-.37,5.84-1.11,1.77-.74,3.22-1.82,4.32-3.25,1.11-1.43,1.66-3.2,1.66-5.33,0-1.89-.43-3.53-1.28-4.91ZM123.57,162.97c.38.1.3-.17.44-.25.45-.28.38-.89.54-1.35.07-.22.13-.47.21-.7.05-.14,0-.36-.06-.57-.09-.28-.41-.55-.79-.68-.86-.29-1.24-.01-1.53.32-.51.59-1.01,1.21-1.31,1.93-.31.71-1.27,1.01-1.25,1.92,0,.05-.03.09-.07.11-.14.07-.36.1-.42.21-.07.14.02.37-.02.53-.06.19-.36.31-.24.52.25.45.03.67-.21.79-.57.29-.63.85-.95,1.27-.28.37-.24.92-.85,1.11-.11.04-.17.2-.09.3.25.28.05.38-.02.53-.25.55-.38,1.16-.78,1.64-.37.48.17,1.3-.62,1.6-.05.02-.08.09-.04.12.38.33.1.47.03.65-.13.33-.24.65-.57.92-.33.27-.27.73-.44,1.08-.15.34-.43.65-.58,1-.2.46-.3.96-.41,1.46-.04.18-.11.34.04.58.16.25.11.54-.24.7-.07.03-.18.11-.15.14.41.29.16.49.09.71-.06.23.13.48.14.71.02.36-.22.67-.4,1.01-.25.46-.27.98-.24,1.49.04.48-.38.89-.22,1.4.19.59-.05,1.19-.04,1.79.03.6.21,1.2.25,1.8.07.61.04,1.23.13,1.84.05.22-.4.51-.19.62.43.21.26.48.31.73l.35,1.96.54,2.19c.12.5.76.72,1.22,1.01.04.02.12.03.19.02.38-.05,1.34-.67,1.28-.85-.13-.39.11-.87-.06-1.25-.25-.69-.45-1.41-.51-2.14-.1-.73-.4-1.45-.09-2.22.15-.41-.07-.82-.05-1.24.02-.4.15-.8.22-1.2.04-.31.04-.63,0-.94-.04-.3-.2-.61-.21-.91-.03-.5.05-.99.1-1.49.04-.36.09-.71.11-1.07,0-.14-.3-.4-.17-.45.47-.16.25-.43.33-.64.19-.5.04-1.06.07-1.6.07-.87.32-1.72.62-2.54.29-.82.27-1.77,1.03-2.43.18-.16.16-.41.24-.62.09-.23.04-.53.3-.66.27-.13.08-.38.15-.56.45-1.02.82-2.08,1.37-3.06.52-.97.75-2.11,1.71-2.84.28-.2.52-.48.27-.98.46-.38.32-1.09.59-1.59.31-.59.99-.94.85-1.81,0-.04.05-.08.11-.06Zm140.84,41.35c.7,3.51.5,7.34-.74,10.78-.22.53-.43,1.07-.66,1.6l-.39.77c-.16.28-.18.43-.51.92-.74,1.01-1.49,1.77-2.28,2.58-1.59,1.57-3.35,2.89-5.17,4.13-3.79,2.51-8.15,4.57-12.4,5.41-1.96.47-3.96.63-5.92.92l-2.97.18c-.5.02-.99.08-1.48.08l-1.48-.02-2.97-.04-2.95-.27-1.47-.14-.37-.03c-.13-.02-.22-.01-.44-.05l-.78-.18c-.97-.24-1.92-.5-2.86-.8-3.74-1.17-7.41-2.64-10.84-4.71-1.7-1.05-3.36-2.23-4.81-3.71-1.43-1.48-2.73-3.26-3.35-5.39-.46-1.47-.51-3.01-.3-4.44,0-.06,0-.11,0-.18,0-.13,0-.25,0-.36,0-.23.04-.44.06-.66.06-.42.15-.81.26-1.2.23-.76.51-1.47.83-2.15.65-1.36,1.45-2.61,2.29-3.84,1.18-1.73,3.81-3.02,3.55-2.15-.04.17-.19.46-.38.73-1.07,1.53-1.95,3.1-2.67,4.74-.36.82-.67,1.65-.89,2.5-.12.42-.2.85-.26,1.27-.02.21-.05.41-.05.6,0,.1,0,.18,0,.27,0,.05.02.21,0,.12l.02.52c-.03.33-.05.69-.08,1.07-.03,1.5.37,2.96,1.14,4.3.77,1.34,1.9,2.52,3.16,3.57,2.55,2.1,5.64,3.65,8.81,4.91,1.41.56,2.84,1.06,4.29,1.5.73.22,1.46.43,2.19.62l1.09.27c.13.03.05.02.17.03l.28.03.57.05c1.51.12,3.02.35,4.54.38l2.27.02c.76,0,1.52.05,2.26-.04,1.12-.07,2.25-.14,3.4-.21,1.13-.19,2.26-.42,3.37-.8.55-.2,1.35-.36,2.29-.49.47-.07.97-.13,1.47-.24.12-.03.24-.08.36-.11-.13-.3-.2-.61-.13-.93.2-1.04.39-2.06.68-3.06.24-.88.57-1.73.84-2.6.11-.32.42-.56.18-1.04-.12-.24.44-.36.55-.65.29-.79.72-1.52,1.05-2.29.33-.74.58-1.54.95-2.27.19-.36.43-.69.67-1.03l.17-.26c.05-.09.02-.04.04-.08,0-.04,0-.08-.06-.11-.09-.05-.04-.05.05-.1.06-.03.09-.1,0-.12h-.11s-.04-.02-.04-.02c0,0,0,0-.1-.07-.27-.22-.53-.47-.73-.75-.3-.41-.56-.84-.95-1.14-.25-.18-.62-.21-.84-.47-.21-.24-.31-.62-.84-.5-.04.01-.08-.15-.08-.24-.01-.45-.32-.72-.66-.8-.32-.08-.46-.29-.63-.49-.46-.54-.92-1.08-1.31-1.67-.32-.42-.44-.98-.69-1.45-.26-.48-.75-.87-.83-1.41-.09-.54-.32-.95-.54-1.4-.13-.25-.08-.64-.61-.63-.05,0-.09-.1-.08-.16.09-.5-.13-.82-.41-1.14-.26-.32-.55-.63-.64-1.04-.15-.84-.64-1.58-.88-2.39-.07-.22-.01-.49-.4-.58-.14-.03-.22-.26-.17-.4.25-.73-.21-1.28-.27-1.94-.07-.73-.49-1.4-.25-2.2.1-.34.11-.76-.38-1.06-.23-.14-.09-.52-.18-.78-.08-.21-.29-.4-.33-.62-.03-.19.13-.39.19-.59.02-.06.01-.13-.02-.18-.63-1.02,0-2.14-.19-3.2-.12-.84-.11-1.69-.03-2.55-2.37.08-4.75.43-7.03.95-3.15.71-6.24,1.82-9.09,3.42-1.78,1.01-3.29,2.19-5.1,3.43-.86.58-1.66,1.16-2.62,1.89-.45.35-.89.7-1.3,1.07-.42.35-.84.68-1.2,1.04-.12.12-1.02.6-1.51.79-2.31.92-5.16,1.91-7.3,2.32-2.08.47-4.07.18-5.98-.42-.59-.19-1.16-.42-1.72-.69,0,.05.01.09,0,.14-.03.27-.11.53-.22.79-.14.31,0,.77-.44.92-.06.02-.14.13-.14.2,0,.72-.18,1.47-.56,2.05-.38.59-.82,1.14-1.18,1.72-.35.45-.61.97-.9,1.47-.29.5-.6,1.01-1.1,1.31-.12.77-.73,1.23-1.28,1.57-.48.31-.96.6-1.43.91-.46.31-.9.65-1.33,1-.43.34-.84.72-1.29,1.04-.45.32-.9.63-1.36.91-.95.57-1.85,1.23-2.8,1.79l-2.87,1.64c-.33.18-.48.58-.96.61-.45.04-.85.42-1.28.63-.39.2-.76.49-1.18.57-1.76.31-3.14,1.41-4.74,2.05l-1.83.75c-.27.11-.53.25-.64.37-.04.07-.07.13.13.18.25.05.39.06.39.11,0,.03.13.02.17.03.04.01,0,.05-.21.21-.09.1.38-.1.41-.1.09,0,.11.02.21.05l.97.31c.91.25,1.82.54,2.76.69.57.11,1.17.04,1.75.1.6.06,1.2.19,1.79.31.75.16,1.48.46,2.25.57.8.12,1.64.04,2.39.28.7.24,1.41.33,2.13.38.72.03,1.44,0,2.15.04,1.42.08,2.86.05,4.28-.07.8-.1,1.56.23,2.36.17.37-.02.96,1.04.84,1.43-.02.07-.08.15-.14.18-.76.4-1.46.98-2.39,1l-4.08.1-3.61-.09c-.45-.01-.89-.24-1.39.13-.25.18-.64-.31-1.06-.33-1.12-.08-2.24-.22-3.36-.36-1.09-.1-2.2-.12-3.29-.29-1.08-.17-2.13-.63-3.21-.67-.47-.02-.88-.17-1.28-.35l-.6-.27c-.1-.04-.2-.08-.31-.11l-.54-.16c-.78-.23-1.59-.5-2.38-.79-.73-.31-1.4-.66-1.89-1.01-.69-.52-1.17-.94-2.19-1.4.38-.27.41-.56,1.02-.88.58-.31,1.44-.54,1.22-1.01,0-.04.45-.15.69-.19,1.16-.18,1.9-.53,2.38-.97.23-.21.5-.38.78-.53.21-.1.41-.2.62-.3.8-.39,1.63-.75,2.44-1.1.61-.27,1.28-.4,1.9-.66.64-.27,1.21-.79,1.89-.88.68-.09,1.23-.37,1.79-.66.31-.18.78-.2.8-.76,0-.05.12-.11.19-.11,1.19.03,1.66-1.17,2.63-1.55,1.03-.37,1.83-1.12,2.72-1.71.23-.16.57-.22.59-.65,0-.15.25-.33.42-.34.95-.03,1.4-.81,2.08-1.23.76-.51,1.4-1.19,2.26-1.57.38-.15.83-.46.85-1.09,0-.29.48-.44.67-.71.14-.23.15-.56.31-.76.13-.17.41-.23.62-.35.06-.04.12-.1.14-.16.25-.63.56-1.12.96-1.59.19-.24.44-.46.58-.72.14-.26.27-.52.35-.81l.14-.42c.03-.14.04-.28.07-.42.04-.27.11-.55.17-.82,0-.26.02-.52.05-.79.02-.26-.04-.5-.05-.76-.02-.12-.04-.25-.05-.37-.15-.13-.29-.26-.44-.41-.14-.16-.41-.39-.53-.65l-.29-.56c-.12-.22-.22-.46-.36-.67-1.03-1.75-2.53-3.14-4.34-4.14-2.73-1.49-6.04-2.23-9.41-2.3-1-.02-2.02.03-3.04.14-.51.05-1.02.12-1.52.19l-.75.12-.8.16c-.46.04-.92.07-1.37.11-.38.02-.75.05-1.12.07-.74,0-1.48.17-2.19.22-3.33.29-6.49,1.18-9.68,2.11-1.81.57-4,1.02-5.32,2-.12.09-.8.32-1.12.39-5.34,1.22-10.04,3.96-15.17,5.97-2.65,1.04-5.29,2.19-7.92,3.4-1.31.6-2.63,1.22-3.92,1.85-1.4.65-2.89,1.19-4.35,1.62-.78.25-1.62.37-2.42.58-.81.16-1.6.35-2.33.62-.51.18-2.24.38-3.07.3-4.53-.27-9.25-.75-13.58-2.22-4.91-1.65-9.69-3.81-13.83-6.97-.87-.66-1.91-1.44-2.99-2.25-.55-.4-1.11-.81-1.67-1.21-.34-.26-.42-.28-.77-.45-.29-.14-.58-.27-.87-.4-1.07-.43-2.89-1.98-4.54-2.64-.66-.31-1.32-.57-1.97-.84-.66-.24-1.36-.4-2.02-.66-.57-.21-1.12-.46-1.67-.72-.55-.27-1.14-.43-1.73-.64-.35-.11-.79-.23-1.14-.29-3.46-.53-6.91-.94-10.41-.78-3.49.11-7.02.63-10.38,1.79-1.69.55-3.34,1.27-4.94,2.03-.83.39-1.46.79-2.4,1.28-.88.47-1.7.88-2.56,1.3-3.4,1.65-6.82,3.18-10.24,4.69-3.77,1.66-7.7,3.24-10.61,3.57-1.31.15-1.48-.23.03-1.15,1.1-.68,2.38-1.42,3.7-2.06,2.11-1.03,4.21-2.06,6.26-3.06,4.23-2.09,8.42-4.39,12.71-6.45,1.44-.76,3.04-1.71,4.41-1.84.19-.02.8-.22,1.08-.36,3.04-1.45,6.42-2.32,9.87-2.73,1.72-.26,3.46-.24,5.2-.29.87.02,1.73.1,2.6.14l1.3.07,1.28.18c5.8.72,11.48,2.34,16.44,5.66.75.34,1.51.74,2.27,1.17l.57.33c.09.06.21.1.38.26l.25.2.96.74c1.31,1,2.64,2,3.89,2.89,4.43,3.16,9.44,5.58,14.68,6.93,5.23,1.38,10.72,1.57,15.9.39.66-.14,1.31-.3,1.95-.51l.97-.29.93-.35.93-.35.94-.44,1.95-.91c2.6-1.2,5.22-2.37,7.85-3.5,5.26-2.27,10.57-4.43,15.99-6.36,1.86-.62,3.35-1.48,5.62-1.95,2.11-.48,4.76-1.41,7.22-2.02,1.14-.25,2.29-.57,3.45-.81,1.18-.2,2.33-.41,3.45-.5.93-.03,1.86-.06,2.8-.08,4.03-.58,8.29-.69,12.44.16,2.08.44,4.14,1.17,6.02,2.31,1.87,1.15,3.53,2.75,4.66,4.65.16.26.33.52.46.8l.3.59s.22.24.39.39c.17.17.36.32.55.47.77.6,1.63,1.11,2.54,1.48,1.83.75,3.87.9,5.86.59,2.02-.27,3.94-1.18,5.79-2.16l1.34-.85.67-.42.64-.49,2.62-2.04c4.49-3.31,9.35-6.14,14.85-7.71,2.32-.65,4.84-1.43,7.3-1.17.35.05,1.08-.06,1.94-.15.86-.06,1.83-.15,2.63-.07,3.96.26,7.9,1.57,11.26,3.71l.88.55.83.62c.56.4,1.11.82,1.61,1.29l.78.68c.14.12.24.2.4.37l.37.38c.47.5.92,1.01,1.35,1.52,1.74,2.06,3.28,4.27,4.63,6.62,1.62,2.86,3.05,5.9,3.71,9.28Zm-4.01-1.41c-1.45-5-4.39-9.97-8.04-13.57-3.13-2.85-6.46-5.25-10.51-6.17-1.09-.25-2.19-.41-3.31-.49.14.47.29.94.14,1.42-.06.21.16.44-.22.62-.05.02-.08.11-.05.15.62.87.27,1.79.4,2.69.13.76.64,1.44.58,2.21.54.34.53.83.46,1.28-.19,1.56.5,2.96.91,4.39.17.74.48,1.44.77,2.14l.43,1.05c.16.35.34.68.5,1.02.11.23.45.31.41.67-.04.34.26.6.41.89.15.26.42.47.47.77.11.63.39,1.16.72,1.67.31.51.78.91,1.12,1.41.35.48.7.97,1.07,1.44.42.43.85.84,1.31,1.22.57.46,1.21.82,1.73,1.33.21.23.63.24.58.78,0,.08.09.09.24.12.2.07.44.16.59.27.72.55,1.42,1.14,2.09,1.71l-.08.12c-.39.55-.81,1.1-1.17,1.65l-.55.83-.27.47c-.2.37-.25.83-.43,1.22-.17.41-.4.79-.64,1.17-.31.47-.71.89-.99,1.38-.31.5-.34,1.14-.76,1.57-.75.81-.94,1.85-1.27,2.82-.33.94-.61,1.9-.68,2.88,2.06-.82,4.03-1.83,5.89-3.03,2.34-1.49,4.51-3.3,6.28-5.37.39-.51.9-1.05,1.02-1.44l.41-.89.34-.91c.43-1.22.74-2.48.86-3.77.29-2.57-.04-5.18-.76-7.71Zm-76.75,31.16c.47.45.24,1.75-.22,1.83-.09.02-.21,0-.3-.04-.56-.28-1.11-.5-1.63-.75-.53-.25-1.11-.43-1.62-.82-.19-.14-.37-.29-.58-.41l-.64-.34-1.28-.67-1.37-.52c-.45-.19-.91-.35-1.39-.47-.83-.24-1.66-.51-2.53-.66l-1.29-.27-1.31-.17c-.65-.09-1.3-.36-2.02,0-.35.18-.94-.38-1.56-.38-1.65-.03-3.32-.14-4.98-.02-1.61.1-3.22.37-4.78.62-1.64.25-3.38.11-4.96.5-1.37.32-2.65.05-3.96.2-1.39.17-2.84.31-4.22.2-1.01-.1-2-.24-2.99-.14-.62.07-1.2.32-1.88.32-.63,0-1.35-.23-1.9.24-.05.04-.33-.05-.47-.11-.68-.31-1.51-.3-2.09-.1-.56.2-1.06.13-1.58.12-1.43-.04-2.87-.09-4.3-.31-1.07-.12-2.13-.46-3.2-.69-.56-.1-1.15-.19-1.73-.31-.58-.12-1.14-.23-1.64-.52-.99-.55-1.98-.87-3.01-1.51-.15-.09-.29-.19-.43-.3-.15-.13-.29-.27-.44-.39-.3-.21-.61-.53-1.04-.68-.08-.04-.28-.42-.32-.6-.03-.12-.05-.25-.07-.38l-.02-.17c-.38-.66-.74-1.35-.94-2.17-.27-1.09-.14-2.24.33-3.11,1.05-1.89,2.32-3.27,3.67-4.5.36-.33.84-.54.98-1.09.05-.19.44-.52.69-.59,1.34-.42,2.3-1.41,3.47-2.06,1.32-.73,2.52-1.68,4.02-2.09.63-.18,1.43-.51,1.91-1.25.22-.34.96-.5,1.43-.79.38-.24.68-.61,1.08-.82.34-.17.76-.18,1.14-.27.11-.03.24-.09.33-.16,1.75-1.4,4-1.69,5.95-2.68,1.96-1,4.04-1.8,6.12-2.55,1.14-.41,2.37-.73,3.44-.22.48.23.62.62.23,1.03-.29.3-.63.61-1.01.81-.61.33-1.22.65-1.81.97-1.24.65-2.35,1.53-3.76,1.9-.44.11-.83.52-1.32.32-.07-.03-.25.02-.32.08-1.52,1.3-3.48,1.75-5.22,2.62-1.48.74-2.7,1.86-4.26,2.44-.59.84-1.57,1.26-2.44,1.58-3.06,1.13-5.68,3.13-8.1,5.06-1.21.98-2.33,2.1-2.95,3.25-.32.57-.46,1.11-.44,1.53.01.42.2.81.56,1.25v.02s.32.8.32.8c.03-.01.06-.02.09-.03.08-.03.04-.03.12,0,.05.02.08.05.12.1.07.06.12.13.17.23.2.41.89.61,1.47.84.52.23,1.2.29,1.7.59,2.24,1.12,4.93,1.08,7.46,1.36,1.28.08,2.57.2,3.86.23,1.29.02,2.59.02,3.88-.04,1.58-.11,3.14-.41,4.73-.35.68.02,1.38-.28,2.07.12.2.12.81-.26,1.25-.3,1.08-.1,2.17-.11,3.25-.2,1.5-.12,3-.2,4.49-.37.45-.05.9-.14,1.35-.23.38-.1.93-.24,1.38-.3,1-.16,2.01-.24,3.01-.25,1.27-.02,2.54.1,3.8.16.66.02,1.33,0,1.99.01.67.01,1.32.03,1.94.2,2.3.53,4.63.75,6.92,1.34,2.27.63,4.48,1.52,6.62,2.62,1.18.73,2.04,1.68,2.96,2.65Zm-65.31-8.18s.09-.02.14-.03c-.18.03-.26.05-.29.05.05,0,.26-.05.07-.01h.08Zm.79.07c0-.05,0-.1,0-.15v-.04s0-.02,0-.02h0s0-.01,0-.01h0s-.04,0-.06,0l.08.21Zm-65.6-49.35c0-.13.06-.38.16-.59,1.31-2.76,2.39-5.41,4.4-8.28,2.96-4.22,6.01-8.42,9.32-12.41,1.45-1.75,2.92-3.47,4.3-5.22,1.38-1.75,2.64-3.51,3.47-5.4.61-1.4,1.2-2.92,1.06-4.63-.07-.83.6-2.33.66-3.87.12-2.07.16-4.16.22-6.28.09-2.21.3-4.33.58-6.47.54-4.15,1.29-8.28,2.58-12.32,1.28-4,3.36-7.88,5.53-11.36.48-.74.98-1.45,1.49-2.11.55-.7,1.12-1.31,1.7-1.91,1.16-1.19,2.38-2.28,3.6-3.43,2.58-2.45,5.55-4.68,8.61-6.33.73-.37,1.46-.74,2.19-1.11l1.11-.51,1.25-.6.48-.09c.08-.01.18-.04.27-.06.18-.04.37-.1.56-.16.37-.12.75-.25,1.11-.42,1.3-.58,2.35-1.41,3.64-2.24,1.2-.76,2.58-1.72,3.17-2.91.04-.1.55-.51.82-.7.67-.44,1.24-1.11,1.8-1.74.49-.69.94-1.37,1.2-1.98.25-.6.53-1.14.82-1.65.29-.53.58-1.06.87-1.59,1.48-2.84,2.35-5.99,2.79-9.24.17-1.22.31-2.44.41-3.69l.12-1.97c.06-.69.14-1.36.22-2.03.34-2.78.69-5.77,1.61-8.22.92-2.44,1.76-4.78,2.9-7.09.32-.66.76-1.32,1.13-1.99.41-.64.71-1.31.89-1.94.03-.12.36-.57.55-.75.3-.3.59-.6.89-.89-.11-.1-.23-.21-.33-.31-.42-.44-1.06-.79-1.15-1.45-.03-.2-.33-.31-.05-.62.04-.04.03-.13-.01-.15-.89-.51-.87-1.48-1.19-2.26-.27-.67-.94-1.22-.92-2.02-.56-.29-.58-.82-.52-1.26.23-1.56-.16-3.07.17-4.67.32-1.58.92-3.2,1.98-4.49.18-.21.12-.59.5-.69.36-.08.52-.47.78-.72.25-.2.45-.5.76-.59,1.28-.32,2.16-1.17,3.3-1.55l.46-.17c.18-.09.45-.1.64-.13l.89-.09,1.75-.15c.71-.07,1.45-.28,2.18-.09.3.09.69-.12.91.39.06.14.42-.14.63-.1.51.09,1,.27,1.5.46.69.27,1.34.63,2,1.01.39.24.89.36,1.27.66.42.29.75.69,1.05,1.09.17.27.31.56.45.85.12.3.22.59.36.86.24.58.69,1.12.66,1.75-.05,1.14.31,2.11.33,3.15.02.51.01,1.01-.01,1.51l-.02,1.49c0,.08-.02.15-.04.23.34,0,.67.02,1.01.05,1.13.03,2.22.2,3.32.37.29.05.59.1.88.15l.87.21c.58.12,1.16.2,1.72.16.19-.02.61.04,1.05.16.43.12.86.27,1.14.41,2.94,1.46,6.17,2.58,9,4.46,1.6,1.07,3.17,2.23,4.58,3.63,1.41,1.39,2.63,3.06,3.36,4.98.64,1.61,1.22,3.84,1.71,5.92.08.47.14,1.23.01,2.03-.06.4-.09.82-.18,1.22-.07.38-.15.75-.2,1.09-.18,1.12-.21,2.23-.46,3.31-.21.92-.63,1.8-.96,2.71-.1.27-.2.6-.25.88-1.03,5.4-3.61,10.27-6.05,15.18-2.47,4.95-5.82,9.65-10.03,13.45-1.05.97-2.21,1.85-3.37,2.55-.05.22-.12.42-.29.52-.54.34-1.03.75-1.59,1.1l-1.45.93c-.18.12-.47.05-.47.51,0,.23-.41-.09-.58.02-.44.32-.99.45-1.47.73-.46.27-.92.6-1.44.81-.5.24-1.12.14-1.6.48-.42.32-.92-.02-1.37.1-.48.16-1.02.18-1.5-.03-.35-.14-.67-.37-1.03-.36-.23,0-.49.19-.73.12-.22-.1-.39-.38-.75-.01-.03.03-.1-.09-.13-.17-.13-.36-.39-.47-.67-.4-.28.08-.43-.04-.6-.13-.48-.25-.9-.58-1.28-.95-.26-.3-.4-.69-.63-.99-.21-.32-.63-.51-.67-.93-.01-.42-.2-.68-.38-.96-.11-.16-.02-.46-.51-.35-.05,0-.07-.06-.06-.1.28-.76-.66-.85-.75-1.42-.08-.57-.38-1.04-.58-1.56-.05-.14.03-.33-.34-.35-.13,0-.19-.15-.13-.25.32-.53-.05-.85-.09-1.27-.03-.47-.35-.88-.09-1.42.11-.23.14-.5-.34-.65-.22-.07-.06-.33-.14-.49-.06-.13-.28-.23-.31-.37-.02-.12.13-.26.19-.39.02-.04.02-.08-.02-.11-.59-.6-.02-1.35-.22-2.01-.21-.66-.2-1.36-.16-2.05.02-.38.15-.78,1-1.05.39-.12.8-.11,1.05.03.18.11.35.23.4.35.08.2.19.39.27.58.17.4.59.77.41,1.2-.06.14.18.27-.19.41-.05.02-.07.08-.04.1.64.49.32,1.1.45,1.66.1.47.65.85.53,1.35.52.17.49.48.41.77-.28,1.01.27,1.85.5,2.72.23.9.64,1.72,1.05,2.5.07.14.36.11.27.37-.08.24.17.33.27.49.1.14.27.24.28.43.03.82.71,1.16,1.19,1.55.46.44,1.04.75,1.65.84.4,0,.78-.13,1.14-.02.16.05.33-.19.48.26.05.13.2-.19.31-.23.26-.06.53-.06.8-.08.38-.07.77-.13,1.13-.25.23-.09.4-.36.61-.47.22-.13.46-.18.72-.25.32-.08.69-.07,1.01-.17.34-.08.57-.46.96-.44.74.04,1.21-.45,1.77-.78.57-.31,1.13-.63,1.59-1.11.19-.19.5-.19.76-.26,1.13-.93,2.22-1.91,3.2-2.94,2.35-2.43,4.14-5.25,6.22-8.05.67-.87,1.11-2.08,1.9-2.67.11-.08.35-.46.43-.66.85-2.12,1.81-4.23,2.74-6.37-.34-.08-.65-.22-.93-.47-.9-.86-1.64-1.76-2.32-2.7-.57-.84-1.08-1.7-1.59-2.55-.2-.31-.2-.73-.73-.89-.27-.08,0-.61-.17-.91-.44-.8-.77-1.66-1.16-2.48-.4-.79-.87-1.55-1.23-2.36-.17-.4-.29-.83-.42-1.26-.06-.21-.13-.42-.22-.62-.04-.09-.1-.23-.13-.26-.02,0-.05-.02-.08-.01-.11.01-.07-.02-.05-.12.03-.09.05-.25,0-.25h-.01c-.15.18-.15.25-.3.14.02-.16-.68.09-1.06.42-.25.22-.4.59-.71.77-.29.16-.74.14-.78.69,0,.05-.18.04-.28.02-.47-.11-.86.11-1.04.43-.18.32-.43.41-.67.54-.67.37-1.35.73-2.1.93-.56.17-1.15.2-1.71.36-.58.15-1.09.63-1.71.52-.6-.08-1.11.06-1.64.19-.3.08-.69-.05-.84.48-.01.05-.13.07-.19.05-.97-.39-1.7.45-2.63.44-.47-.03-.93.05-1.41.08l-1.42.08c-.25,0-.52-.12-.76.22-.08.12-.35.14-.48.05-.68-.48-1.43-.3-2.14-.44-.8-.13-1.65-.09-2.39-.62-.31-.22-.75-.39-1.26-.06-.24.14-.57-.17-.87-.22-.25-.04-.54.09-.78.02-.2-.06-.35-.29-.52-.43-.05-.04-.12-.07-.19-.07-.64,0-1.19-.26-1.72-.57-.53-.3-.99-.73-1.56-.93-1.05-.4-2-1.05-2.9-1.75-.34,1.76-.55,3.54-.57,5.31-.03,3.33-.35,6.76-1.32,10.04-.48,1.63-1.12,3.23-1.9,4.75-.39.76-.82,1.5-1.22,2.19-.45.72-.87,1.45-1.35,2.15-1.24,1.81-2.67,3.51-4.27,5.05-.13.42-.24.83-.31,1.23-.11.65-.06,1.31.06,1.91.13.6.25,1.2.38,1.81.09.4.48.72.33,1.2-.02.07.04.24.1.29.75.6,1.41,1.23,2.1,1.89.72.63,1.46,1.31,2.33,1.8,1.48.86,3.16,1.17,4.7,2,1.06-.07,2.08.38,2.96.83.78.38,1.58.73,2.41,1l.62.2.77.23s-.03-.08-.31-.1c-.04,0,.04-.04.11-.06.3-.1.28-.19.07-.25-.21-.06-.18-.12-.19-.18-.03-.17-.06-.34,0-.5.04-.13.23-.24.29-.36.06-.12-.14-.29.1-.38.23-.09.25-.19.27-.31.01-.06.24-.09-.21-.24-.04-.01-.03-.04,0-.04.65-.05-.12-.41.09-.57.21-.15.17-.37.22-.57.01-.05.16-.06-.14-.23-.11-.06-.09-.12,0-.11.5.04.29-.21.43-.32.15-.12.04-.38.45-.35.17.01.29-.02-.04-.33-.15-.14.06-.11.06-.19,0-.06-.14-.22-.12-.27.02-.04.19.02.29.03.03,0,.04,0,.02-.04-.26-.51.44-.31.49-.59.07-.29.29-.45.54-.59.13-.07.36-.09.99.51.28.27.51.61.64.83.1.15.18.31.18.36,0,.09.04.2.05.28.02.18.25.52.02.45-.07-.02.07.16-.23-.07-.04-.03-.07-.04-.06-.02.37.5-.03.35-.08.5-.04.13.28.48.06.47.37.3.27.31.12.3-.56-.05-.34.33-.49.51-.13.2-.16.43-.22.66-.01.04.24.12.03.13-.2,0-.06.09-.07.14-.01.05.09.11-.03.14-.5.13-.24.36-.29.55-.04.19-.08.4.04.59.09.12.37.2.29.33-.03.06.23.07-.2.19-.12.04.22.03.24.05.05.07.03.16.06.24.03.11.03.23.11.33.05.06.24.07.3.13.06.05.08.12.06.21-.02.1-.13.25-.13.35,0,.11.22.13.07.3-.28.32-.05.42.01.6.05.18.11.37.28.49.1.07-.19.34-.13.43,0,0-.01.01-.02.02.2.22.4.43.59.66l.32.4c.06.08.13.16.19.24l.1.29.26.74c1.18,3.37,2.59,6.69,3.96,10.02.24.57.69.95.78,1.69.08.7.58,1.43.89,2.15.29.66.68,1.31.85,1.98.69,2.77,2.16,5.23,3.33,7.81,1.16,2.56,2.37,5.12,3.75,7.57.86,1.48,1.85,2.9,2.58,4.44.31.66.9,1.21.86,2.05-.02.24.62.67.87,1.06.63.98,1.18,2.01,1.81,3,.86,1.38,1.7,2.77,2.65,4.09.56.81,1.27,1.52,1.88,2.31.63.83,1.22,1.69,1.8,2.56.72,1.1,1.36,2.26,2.11,3.35.77,1.13,1.8,2.14,2.43,3.31,1.18,2.17,2.83,3.98,4.31,5.92,1.47,1.93,2.96,3.87,4.53,5.74.89,1.07,1.35,2.31,2.14,3.45.37.56-.09,1.86-.56,1.84-.09,0-.21-.05-.29-.12-1-.89-2.12-1.52-3-2.74-1.29-1.79-2.71-3.52-4.1-5.27-1.22-1.55-2.42-3.12-3.67-4.66-.46-.57-.77-1.29-1.56-1.65-.39-.18-.44-1.04-.87-1.57-.48-.6-.94-1.22-1.4-1.84-.05.09-.11.18-.2.25-.33.3-.6.63-.93.9-.06.04.06.29-.14.18-.18-.1-.17.08-.24.13-.07.05-.08.19-.21.14-.54-.2-.64.17-.94.3-.29.12-.58.2-.81.43-.14.14-.2.46-.42.44-.09,0-.08.27-.31-.12-.06-.11-.01.23-.06.26-.11.08-.23.09-.35.13-.17.05-.34.08-.49.17-.09.06-.14.27-.23.34-.01,0-.02,0-.03.02.6.53,1.19,1.09,1.74,1.67.78.83,1.47,1.72,2.26,2.54.81.85,1.83,1.56,2.48,2.49,1.22,1.74,2.83,3.07,4.27,4.59,1.42,1.51,2.84,3.04,4.33,4.5.83.86,1.29,1.88,2.03,2.79.36.42-.04,1.67-.48,1.73-.08.01-.2,0-.27-.06-.97-.64-2.03-1.04-2.86-2-1.21-1.42-2.55-2.76-3.87-4.11-1.16-1.19-2.32-2.4-3.53-3.54-.45-.43-.77-1.01-1.51-1.18-.29-.07-.41-.55-.66-.95.01.16-.11.24-.25.29-.37.13-.61.29-.79.53-.18.24-.35.49-.59.64-.24.16-.46.36-.68.52-.23.16-.45.32-.69.45-.08.05-.01.32-.21.2-.18-.11-.22.09-.33.14-.09.05-.15.19-.29.13-.6-.26-.82.21-1.22.31-.39.09-.78.19-1.11.44-.2.16-.35.47-.62.45-.11-.01-.14.26-.37-.14-.06-.11-.06.24-.12.27-.15.08-.31.1-.47.15-.22.06-.45.1-.66.19-.13.05-.22.26-.35.33-.02.01-.05.02-.08.03.77.82,1.53,1.65,2.33,2.46.58.63.8,1.43,1.28,2.14.24.33-.39,1.35-.8,1.43-.08.02-.17,0-.23-.02-.36-.21-.75-.37-1.1-.56-.37-.18-.71-.4-.97-.74-.77-1.01-1.68-1.92-2.58-2.86-.81-.81-1.6-1.65-2.47-2.41-.32-.29-.51-.73-1.11-.74-.3,0-.28-.64-.58-.89-.83-.69-1.58-1.47-2.42-2.15-.81-.67-1.71-1.23-2.54-1.88-.82-.64-1.49-1.51-2.42-1.97-.4-.2-.69-.49-.97-.8l-.42-.45c-.05-.07-.07-.08-.1-.07-.88-.3-1.82-.59-2.54-1.18-.53-.42-1.03-.86-1.64-1.09-.37-.16-.82-.15-1.19-.39-.35-.23-.64-.64-1.2-.42-.05.02-.16-.16-.2-.26-.21-.5-.66-.79-1.09-.82-.41-.04-.68-.23-.95-.42-.75-.53-1.54-1.05-2.22-1.67-.52-.47-.95-1.02-1.44-1.5-.51-.51-1.24-.84-1.58-1.45-.33-.62-.81-1.03-1.28-1.48-.26-.26-.42-.71-.97-.58-.05.01-.15-.09-.17-.16-.3-1.18-1.6-1.35-2.21-2.25-.63-.92-1.45-1.69-2.18-2.56-.2-.24-.27-.55-.75-.61-.19-.04-.36-.28-.38-.47-.11-.98-.79-1.54-1.18-2.3-.43-.86-1.11-1.56-1.29-2.57-.07-.43-.28-.94-.9-1.14-.29-.09-.34-.59-.56-.87-.18-.23-.49-.37-.64-.61-.13-.21-.09-.5-.14-.76-.01-.08-.06-.15-.11-.2-1.12-.96-1.21-2.48-2-3.63-.79-1.16-1.43-2.42-2.03-3.69-.33-.7-.59-1.47-.08-2.33.23-.39.59-.58.97-.41.27.13.55.29.72.51.28.35.56.69.83,1.03.55.71,1.32,1.29,1.58,2.2.08.28.44.47.22.86-.03.05,0,.17.05.21,1.11.78,1.39,2.08,2.04,3.15.56.9,1.47,1.56,1.83,2.58.7.27.98.9,1.16,1.48.63,2.02,2.04,3.73,3.1,5.24,1.24,1.64,2.71,3.15,4.16,4.65.25.25.66.27.81.71.14.42.61.65.95.96.31.28.7.5.91.86.9,1.44,2.36,2.29,3.64,3.3.64.5,1.28,1.02,1.96,1.46.67.46,1.36.89,2.09,1.24.88.46,1.86.68,2.69,1.21.35.24.85.2,1.05.76.06.16.55,0,.8.1l.46.18.26.11c.2.09.32.14.47.21l.98.82c.76.62,1.48,1.28,2.26,1.88.47.36,1.04.61,1.52.97.5.37.98.79,1.42,1.24.56.57,1.04,1.21,1.6,1.77.58.59,1.35,1.01,1.79,1.7.25.4.55.75.86,1.09.15-.02.31-.04.46-.08.09-.03.22.16.24-.26.01-.21.18.25.26.21.21-.1.45-.07.67-.17.21-.09.39-.3.6-.38.2-.09.48.09.62-.21.12-.25.37.07.51-.06.15-.14.31-.25.53-.13.16.09.34.21.44.1.06-.07.05-.33.14-.34.08-.01.23.14.14-.32,0-.04.05.03.09.08.18.26.28.2.27-.02,0-.21.06-.21.11-.24.15-.09.31-.16.48-.19.12-.02.31.08.45.06.14-.02.17-.27.38-.12.22.14.33.08.43.02.05-.04.24.1.03-.33-.02-.04,0-.05.03-.02.49.42.21-.37.44-.34.27.03.32-.2.45-.33.03-.03.17.03-.03-.25-.07-.1-.04-.14.04-.09.44.26.3-.06.45-.1.16-.06.11-.29.47-.2.16.04.28,0-.05-.29-.16-.13.06-.08.05-.15-.01-.05-.18-.18-.17-.22,0-.03.18.02.27.02.03,0,.03,0,.01-.03-.27-.25,0-.28.14-.37-.29-.28-.57-.56-.86-.83-1.12-1.02-2.33-1.94-3.46-2.96-1.12-1-2.09-2.23-3.31-3.05-1.05-.71-1.62-1.76-2.56-2.51-.99-.8-2-1.66-2.79-2.63-.29-.36-.57-.72-.87-1.06l-.11-.13c-.05-.05-.14-.15-.18-.2l-.22-.27c-.15-.17-.31-.34-.47-.49-.42-.39-.96-.62-1.36-1.1-.38-.44-.66-1.06-1.35-1.12-.06,0-.17-.25-.21-.4-.17-.68-.68-1.25-1.18-1.51-.48-.26-.76-.62-1.07-.98-.88-.96-1.66-2.02-2.44-3.07-.59-.78-1.01-1.69-1.54-2.51-.56-.85-1.38-1.62-1.69-2.54-.32-.93-.86-1.65-1.32-2.46-.27-.45-.4-1.09-1.03-1.23-.06-.01-.16-.19-.17-.28-.2-1.62-1.63-2.54-2.14-4.03-.54-1.51-1.25-3-1.78-4.57-.13-.43-.14-.91-.58-1.22-.15-.11-.28-.58-.25-.82.11-.76,0-1.49-.07-2.31v-.02s0-.02,0-.02l-.15-.57c-.05-.21-.1-.42-.13-.64-.1-.65-.27-1.29-.42-1.94-.17-.64-.31-1.28-.31-1.97,0-.59-.12-1.36-.76-1.86-.29-.23-.29-.9-.49-1.35-.15-.37-.48-.65-.63-1.01-.12-.31-.08-.68-.12-1.02-.01-.1-.06-.22-.11-.3-.57-.8-.94-1.65-1.24-2.56-.36-.87-.64-1.8-1.19-2.57-1.06-1.58-2.1-3.18-3.3-4.58-.66-.79-1.29-1.54-1.35-2.62-.02-.48.14-.87.71-.78.4.07.83.2,1.18.45.54.39,1.08.79,1.57,1.22.99.9,2.15,1.72,2.73,3.01.17.4.66.69.51,1.2-.02.07.04.24.11.29,1.47,1.26,1.95,3.18,2.72,4.85.63,1.43,1.64,2.69,1.92,4.28.73.68.96,1.7,1.04,2.59.23,1.83.56,3.49,1.01,5.35l.02.19.02.19c.08.97.38,2.08.68,3.16.75,2.78,2.13,5.46,3.56,8.07.26.44.71.68.84,1.3.12.58.62,1.13.99,1.67.33.5.76.97.97,1.51.92,2.23,2.58,3.98,4.02,5.87.69.96,1.47,1.86,2.22,2.78l1.16,1.35c.41.43.82.86,1.24,1.28.51.51,1.06.99,1.59,1.48.27.24.54.54.71.66.28.24.55.49.8.76.43.46,1.09.72,1.24,1.47.04.21.7.36,1.01.63.76.66,1.48,1.37,2.21,2.06.69.65,1.37,1.3,2.06,1.95.03-.08.06-.14.1-.13.2.03.39-.04.58-.07.17-.03.35-.02.51-.09.06-.03.16.15.14-.26,0-.2.14.25.2.22.14-.09.31-.05.45-.13.14-.08.24-.27.38-.35.12-.09.33.07.39-.2.05-.24.27.09.35-.03.08-.13.19-.21.35-.1.12.09.27.2.31.09.03-.07-.02-.31.03-.31.05,0,.2.15.04-.29-.01-.04.04.03.08.08.18.25.24.2.19,0-.05-.2-.01-.2.02-.23.08-.08.16-.15.28-.16.09-.01.25.1.35.09.11,0,.04-.24.24-.1.2.14.25.08.32.03.03-.03.22.11-.06-.28-.03-.04,0-.04.02-.02.51.4.04-.31.23-.27.2.02.23-.14.27-.24.02-.03.14.03-.1-.21-.09-.08-.08-.11,0-.07.42.22.27-.02.37-.05.13-.04-.01-.23.36-.14.16.04.27.01-.11-.23-.17-.11.03-.06,0-.12-.02-.04-.2-.15-.19-.17,0-.02.18.02.27.03.03,0,.03,0,0-.02-.17-.12-.17-.17-.1-.21-.99-1.26-2.01-2.49-2.95-3.8-1.05-1.45-1.89-3.11-3.02-4.44-.97-1.16-1.39-2.49-2.18-3.69-.87-1.25-1.69-2.6-2.25-4-.42-1.01-.75-2.04-1.32-2.95-.35-.57-.85-1.01-1.17-1.67-.29-.61-.45-1.39-1.14-1.7-.06-.03-.12-.34-.13-.5-.05-.79-.48-1.58-.93-2.03-.44-.45-.65-.93-.9-1.42-.7-1.35-1.36-2.73-1.96-4.12-.46-1.04-.76-2.15-1.2-3.2-.46-1.09-1.16-2.17-1.4-3.26-.24-1.1-.66-2.06-1.1-3.04-.24-.56-.32-1.3-.96-1.58-.06-.03-.14-.24-.15-.35-.11-1.85-1.52-3.12-2.04-4.82-.53-1.75-1.32-3.45-1.99-5.19-.09-.23-.15-.48-.24-.72-.13-.32-.16-.27-.32-.19,0,.2-.39-.26-.45-.46-.46-1.24-1.7-2.03-2.6-2.9-.02-.03-.04-.06-.07-.07-.04-.01.04,0-.08-.03l-.29-.08-1.18-.33c-.78-.22-1.55-.53-2.28-.95-.61-.36-1.46-.78-2.41-.66-.43.04-1.11-.46-1.68-.65-.47-.17-1-.2-1.45-.41-.39-.17-.69-.54-1.03-.82-.1-.08-.24-.16-.36-.2-2.42-.78-4.17-2.82-5.87-4.89-.86-1.06-1.54-2.4-1.81-3.85-.13-.62-.15-1.26-.12-1.89-.94.66-1.91,1.27-2.94,1.81-.62.32-1.26.62-1.93.87-.33.13-.67.25-1.02.36-.17.06-.36.1-.53.16l-.28.07h-.04c-1.08.6-2.17,1.18-3.27,1.77-1.45.79-2.75,1.95-4.34,2.52-.45.17-1.49,1.36-2.3,2.04-2.02,1.67-3.97,3.47-5.71,5.41-.61.68-1.15,1.34-1.7,2.09-.52.74-1.14,1.43-1.58,2.21-.98,1.51-1.83,3.11-2.58,4.76-.43,1.02-.85,2.04-1.15,3.11l-.5,1.58-.45,1.61c-.64,2.24-1.2,4.53-1.66,6.83-.6,2.9-1.14,5.84-1.34,8.79-.14,3.07,0,6.49-.54,9.57-.48,2.85-1.26,5.91-2.79,8.52-1.5,2.62-3.34,4.8-5.14,6.97-1.81,2.15-3.61,4.25-5.29,6.44-1.69,2.19-3.32,4.44-4.87,6.73-1.76,2.6-3.66,4.78-5.32,7.38-.77,1.2-2.72,2.28-2.74,1.58ZM131.95,26.1s0,.1.04.13c.73.61.4,1.6.88,2.32.41.62.72,1.29,1.03,1.96.57-.56,1.15-1.11,1.76-1.64,1.63-1.38,3.51-2.57,5.61-3.25,2.02-.69,4.13-.99,6.24-1.16,0-.08-.03-.15-.01-.23.14-.79.13-1.59.12-2.37-.03-.68-.06-1.37-.23-2.01-.07-.23.06-.53-.38-.67-.23-.05.15-.41.06-.62-.25-.54-.45-1.1-.82-1.55-.35-.44-.85-.72-1.28-1.03-.44-.28-.79-.79-1.39-.8-.49,0-.75-.5-1.22-.55-.5-.04-.99-.09-1.46-.33-.34-.18-.69-.38-1.07-.32-.23.03-.46.27-.7.25-.23-.02-.5-.22-.69.26-.02.04-.12-.04-.18-.1-.26-.29-.58-.25-.76-.02-.18.22-.35.22-.53.25.02-.03-.6.28-1.06.42-.33.15-.76.14-1.1.3-.35.18-.58.55-.97.6-.21.02-.38.09-.53.18-.14.1-.26.23-.38.35-.14.13-.47.16-.19.6.03.04-.02.09-.07.09-.42,0-.54.28-.59.56-.07.28-.02.59-.21.79-.38.43-.45,1.04-.54,1.6-.02.15-.18.3.13.48.11.06.11.22.02.29-.51.39-.23.88-.3,1.34-.06.54.21,1.04-.05,1.64-.11.26-.14.61.36.78.23.08.08.39.19.57.08.15.32.25.37.41.04.13-.08.32-.12.48Zm-3.48,21.13c-.14.43-.25.87-.37,1.31.27.12.55.25.82.37.66.28,1.42.33,1.93.86.16.17.49.11.46.53,0,.06.07.12.12.12.57-.05,1.02.12,1.44.36.43.21.86.46,1.31.63.77.31,1.69.01,2.4.47.55-.3,1.04-.17,1.45.07.36.2.74.35,1.13.47.39.08.8.12,1.2.15l1.21.07c.4,0,.81-.03,1.21-.01,1.64.11,3.27-.23,4.89-.45.28-.06.45-.39.82-.26.34.11.7-.13,1.05-.22.32-.08.63-.26.97-.22,1.38.03,2.54-.71,3.78-1.14,1.2-.54,2.41-1.09,3.53-1.79.32-.25.62-.53.93-.8.35-.29.48-.42,1.28-.87.53-.28,1.14-.97,1.64-.76.12.07.66-.67,1.04-.93.24-.16.5-.34.73-.48l.66,2.23.66,2.09.22.61.21.54c.19.43.53.81.73,1.23.23.44.41.9.55,1.37.2.59.28,1.23.5,1.81.23.61.69,1.13.79,1.76.08.6.31,1.13.59,1.62.27.51.6.96.88,1.44.55.96,1.23,1.83,2,2.52.15.09.26.23.36.38.6-1.46,1.16-2.94,1.63-4.45.6-1.94,1.02-3.91,1.4-5.87.18-.98.36-1.96.54-2.95.09-.49.18-.97.27-1.47.07-.45.13-.91.2-1.37-.21-1.02-.32-2.08-.58-3.1-.25-1.02-.55-2.05-.96-2.97-1.45-3.29-4.53-5.91-7.92-7.79-1.7-.96-3.51-1.75-5.35-2.44-.92-.34-1.86-.65-2.79-.91-.91-.24-1.91-.45-2.86-.68-3.88-.84-7.88-.9-11.57.09-3.67,1.04-6.92,3.25-9.33,6.29-.42.5-.71,1.06-1.06,1.6-.3.57-.67,1.13-1.14,1.76-.92,1.17-1.57,3-2.17,4.62-.56,1.49-.94,3.12-1.41,4.56Zm233.07,115.46c.28,0,.52-.1.73-.29.21-.19.31-.44.31-.76,0-.28-.1-.52-.31-.73-.21-.21-.45-.31-.73-.31h-19.66c-.28,0-.52.1-.73.31s-.31.45-.31.73v34.42c0,.28.1.52.31.73s.45.31.73.31h19.66c.28,0,.52-.1.73-.29.21-.19.31-.44.31-.76,0-.28-.1-.52-.31-.73-.21-.21-.45-.31-.73-.31h-18.51v-15.7h16.17c.28,0,.52-.1.73-.29.21-.19.31-.44.31-.76,0-.28-.1-.52-.31-.73-.21-.21-.45-.31-.73-.31h-16.17v-14.55h18.51Zm40.06,7.07c1.1,2.76,1.64,5.8,1.64,9.1s-.55,6.54-1.64,9.28c-1.09,2.75-2.77,4.93-5.03,6.54-2.26,1.62-5.08,2.42-8.45,2.42h-13.56c-.28,0-.52-.1-.73-.31-.21-.21-.31-.45-.31-.73v-34.42c0-.28.1-.52.31-.73.21-.21.45-.31.73-.31h13.56c3.34,0,6.14.83,8.42,2.5,2.28,1.67,3.96,3.88,5.06,6.65Zm-.55,9.1c0-2.95-.48-5.66-1.43-8.11-.96-2.45-2.43-4.41-4.43-5.87-2-1.46-4.53-2.19-7.59-2.19h-11.89v32.33h11.89c4.52,0,7.89-1.49,10.12-4.46,2.22-2.97,3.34-6.87,3.34-11.71Zm33.34-18.46c-.38,0-.68.16-.89.47l-11.26,15.38-11.26-15.38c-.21-.31-.5-.47-.89-.47-.28,0-.53.1-.76.31-.23.21-.34.43-.34.68,0,.28.07.5.21.68l11.94,16.37v17.62c0,.28.1.52.31.73.21.21.47.31.78.31s.57-.1.78-.31.31-.45.31-.73v-17.83l11.89-16.17c.14-.28.21-.5.21-.68,0-.21-.1-.43-.29-.65-.19-.23-.44-.34-.76-.34Zm36.02.21h-25.34c-.28,0-.52.1-.73.29-.21.19-.31.43-.31.7s.1.51.31.7c.21.19.45.29.73.29h11.63v33.48c0,.28.1.52.29.73.19.21.44.31.76.31.28,0,.52-.1.73-.31.21-.21.31-.45.31-.73v-33.48h11.63c.31,0,.57-.09.76-.26.19-.17.29-.42.29-.73,0-.28-.1-.51-.31-.7-.21-.19-.45-.29-.73-.29Zm33.44,35.09c.03.1.05.24.05.42,0,.31-.1.56-.31.73-.21.17-.47.26-.78.26-.24,0-.46-.06-.65-.18-.19-.12-.32-.29-.39-.5l-4.34-10.64h-17.46l-4.22,10.64c-.17.45-.49.68-.94.68-.31,0-.57-.09-.76-.26-.19-.17-.3-.38-.34-.63-.04-.14-.02-.31.05-.52l14.03-34.52c.1-.28.24-.46.39-.55s.36-.13.6-.13c.52,0,.87.23,1.04.68l14.03,34.52Zm-7.25-11.99l-7.98-19.66-7.82,19.66h15.8Zm57.51-23.1c-.35,0-.63.1-.83.31-.21.21-.31.45-.31.73v25.08c0,2.68-.8,4.82-2.4,6.41s-3.74,2.4-6.41,2.4c-1.81,0-3.42-.55-4.85-1.64-1.43-1.09-2.47-2.53-3.13-4.3-.21-.45-.54-.68-.99-.68-.28,0-.52.09-.73.26-.21.17-.31.4-.31.68,0,.14.03.31.1.52.87,2.19,2.18,3.95,3.94,5.27,1.75,1.32,3.75,1.98,5.97,1.98s4.07-.45,5.74-1.36c1.67-.9,2.96-2.18,3.88-3.83.92-1.65,1.38-3.55,1.38-5.71v-25.08c0-.28-.1-.52-.29-.73-.19-.21-.44-.31-.76-.31Zm40.56,35.09c.03.1.05.24.05.42,0,.31-.1.56-.31.73-.21.17-.47.26-.78.26-.24,0-.46-.06-.65-.18-.19-.12-.32-.29-.39-.5l-4.34-10.64h-17.46l-4.22,10.64c-.17.45-.49.68-.94.68-.31,0-.57-.09-.76-.26-.19-.17-.3-.38-.34-.63-.04-.14-.02-.31.05-.52l14.03-34.52c.1-.28.24-.46.39-.55s.36-.13.6-.13c.52,0,.87.23,1.04.68l14.03,34.52Zm-7.25-11.99l-7.98-19.66-7.82,19.66h15.8Zm49.7-23.1c-.38-.07-.71.09-.99.47l-14.44,21.48-14.44-21.48c-.21-.31-.54-.47-.99-.47-.28,0-.51.11-.7.34-.19.23-.29.46-.29.7v34.42c0,.28.09.52.29.73.19.21.44.31.76.31.28,0,.52-.1.73-.31s.31-.45.31-.73v-31.23l13.5,20.39c.17.28.45.42.83.42.31,0,.56-.14.73-.42l13.45-20.34v31.18c0,.28.1.52.31.73s.47.31.78.31c.28,0,.53-.1.76-.31.23-.21.34-.45.34-.73v-34.42c0-.28-.09-.51-.26-.7-.17-.19-.4-.3-.68-.34Zm35.82,2.09c.28,0,.52-.1.73-.29.21-.19.31-.44.31-.76,0-.28-.1-.52-.31-.73s-.45-.31-.73-.31h-19.66c-.28,0-.52.1-.73.31-.21.21-.31.45-.31.73v34.42c0,.28.1.52.31.73.21.21.45.31.73.31h19.66c.28,0,.52-.1.73-.29.21-.19.31-.44.31-.76,0-.28-.1-.52-.31-.73-.21-.21-.45-.31-.73-.31h-18.51v-15.7h16.17c.28,0,.52-.1.73-.29.21-.19.31-.44.31-.76,0-.28-.1-.52-.31-.73s-.45-.31-.73-.31h-16.17v-14.55h18.51Zm28.04,17.21c-1.43-.73-3.36-1.53-5.79-2.4-1.91-.69-3.51-1.36-4.8-2.01-1.29-.64-2.36-1.49-3.21-2.53-.85-1.04-1.28-2.31-1.28-3.81,0-2.16.88-3.86,2.63-5.11,1.75-1.25,3.95-1.88,6.6-1.88,1.84,0,3.53.37,5.06,1.09,1.53.73,2.78,1.72,3.75,2.97.17.21.4.31.68.31.31,0,.6-.11.86-.34.26-.23.39-.48.39-.76,0-.24-.17-.61-.52-1.1-1.08-1.36-2.54-2.41-4.38-3.15-1.84-.75-3.79-1.12-5.84-1.12-2.29,0-4.31.4-6.05,1.2-1.74.8-3.08,1.9-4.02,3.29-.94,1.39-1.41,2.94-1.41,4.64,0,2.09.48,3.77,1.43,5.06s2.1,2.28,3.44,2.97c1.34.7,3.21,1.5,5.61,2.4,2.19.8,3.92,1.52,5.19,2.16,1.27.64,2.34,1.5,3.21,2.58.87,1.08,1.32,2.45,1.36,4.12,0,2.12-.87,3.82-2.61,5.11-1.74,1.29-3.95,1.93-6.62,1.93-2.05,0-4.01-.42-5.87-1.25-1.86-.83-3.47-2.05-4.82-3.65-.28-.31-.57-.47-.89-.47-.28,0-.54.13-.78.39s-.36.53-.36.81c0,.31.1.57.31.78,1.88,1.88,3.77,3.26,5.68,4.15,1.91.89,4.15,1.33,6.73,1.33,2.26,0,4.27-.41,6.02-1.23,1.75-.82,3.1-1.92,4.04-3.31.94-1.39,1.41-2.89,1.41-4.49,0-2.29-.5-4.14-1.51-5.53-1.01-1.39-2.23-2.45-3.65-3.18Z"/>
</svg>